<svg width="32768" height="625" viewBox="0 0 32768 625" fill="none" xmlns="http://www.w3.org/2000/svg">
<g clip-path="url(#clip0_1_302)">
<path d="M255.074 295.951C267.287 285.843 275.074 270.562 275.074 253.473C275.074 223.04 250.394 198.368 219.96 198.368C203.136 198.368 188.071 205.92 177.963 217.809C170.195 196.804 149.988 181.83 126.27 181.83C95.8377 181.83 71.1663 206.511 71.1663 236.944C71.1663 267.377 95.8377 292.058 126.27 292.058C126.604 292.058 126.929 292.039 127.253 292.029L30.487 472.178C27.7634 476.801 29.2875 482.767 33.9096 485.512L37.2628 487.488C41.8849 490.222 47.8518 488.688 50.5863 484.057L166.282 306.63C180.246 332.353 196.577 355.756 214.237 376.829L172.32 445.532V509.623H190.167V450.545L226.549 390.919C231.996 396.917 237.553 402.708 243.167 408.294L225.91 458.108L226.766 558.788L244.613 558.63L243.787 461.038L257.365 421.845C261.988 426.083 266.638 430.173 271.309 434.146L289.097 526.547L284.78 612.704L302.617 613.6L307.041 525.289L292.814 451.434C304.082 459.989 315.302 467.777 326.276 474.797L357.092 535.427L361.911 624.747L379.738 623.783L374.713 530.694L354.909 491.715C385.766 518.658 420.653 527.753 446.441 527.753C501.068 527.753 545.036 492.874 534.416 450.397C456.965 391.401 255.074 295.951 255.074 295.951Z" fill="black"/>
<path d="M358.587 298.468C390.721 282.4 663.41 158.2 578.168 73.5286C491.519 -12.5303 349.245 243.876 331.812 277.052C315.851 307.396 326.452 314.536 358.587 298.468Z" fill="black"/>
<path d="M595.306 309.461C585.985 225.517 398.106 301.87 374.33 312.166C352.569 321.586 355.185 330.033 379.452 335.323C403.73 340.613 604.471 392.039 595.306 309.461Z" fill="black"/>
<path d="M401.733 123.166C418.695 56.7922 420.466 -3.97544 367.327 0.203775C273.236 7.60801 296.058 191.102 308.713 262.155C322.046 237.72 358.409 174.602 401.733 123.166Z" fill="black"/>
</g>
<g clip-path="url(#clip1_1_302)">
<path d="M2223.03 295.951C2235.24 285.843 2243.03 270.562 2243.03 253.473C2243.03 223.04 2218.35 198.368 2187.91 198.368C2171.09 198.368 2156.03 205.92 2145.92 217.809C2138.15 196.804 2117.94 181.83 2094.22 181.83C2063.79 181.83 2039.12 206.511 2039.12 236.944C2039.12 267.377 2063.79 292.058 2094.22 292.058C2094.56 292.058 2094.88 292.039 2095.21 292.029L1998.44 472.178C1995.72 476.801 1997.24 482.767 2001.86 485.512L2005.22 487.488C2009.84 490.222 2015.81 488.688 2018.54 484.057L2134.24 306.63C2148.2 332.353 2164.53 355.756 2182.19 376.829L2140.27 445.532V509.623H2158.12V450.545L2194.5 390.919C2199.95 396.917 2205.51 402.708 2211.12 408.294L2193.86 458.108L2194.72 558.788L2212.57 558.63L2211.74 461.038L2225.32 421.845C2229.94 426.083 2234.59 430.173 2239.26 434.146L2257.05 526.547L2252.73 612.704L2270.57 613.6L2275 525.289L2260.77 451.434C2272.04 459.989 2283.26 467.777 2294.23 474.797L2325.05 535.427L2329.86 624.747L2347.69 623.783L2342.67 530.694L2322.86 491.715C2353.72 518.658 2388.61 527.753 2414.39 527.753C2469.02 527.753 2512.99 492.874 2502.37 450.397C2424.92 391.401 2223.03 295.951 2223.03 295.951Z" fill="black"/>
<path d="M2326.54 298.468C2358.68 282.4 2631.36 158.2 2546.12 73.5286C2459.47 -12.5303 2317.2 243.876 2299.77 277.052C2283.81 307.396 2294.41 314.536 2326.54 298.468Z" fill="black"/>
<path d="M2563.26 309.461C2553.94 225.517 2366.06 301.87 2342.28 312.166C2320.52 321.586 2323.14 330.033 2347.41 335.323C2371.68 340.613 2572.43 392.039 2563.26 309.461Z" fill="black"/>
<path d="M2369.69 123.166C2386.65 56.7922 2388.42 -3.97544 2335.28 0.203775C2241.19 7.60801 2264.01 191.102 2276.67 262.155C2290 237.72 2326.36 174.602 2369.69 123.166Z" fill="black"/>
</g>
<g clip-path="url(#clip2_1_302)">
<path d="M2879.01 295.951C2891.23 285.843 2899.01 270.562 2899.01 253.473C2899.01 223.04 2874.33 198.368 2843.9 198.368C2827.07 198.368 2812.01 205.92 2801.9 217.809C2794.13 196.804 2773.93 181.83 2750.21 181.83C2719.78 181.83 2695.11 206.511 2695.11 236.944C2695.11 267.377 2719.78 292.058 2750.21 292.058C2750.54 292.058 2750.87 292.039 2751.19 292.029L2654.43 472.178C2651.7 476.801 2653.23 482.767 2657.85 485.512L2661.2 487.488C2665.82 490.222 2671.79 488.688 2674.53 484.057L2790.22 306.63C2804.18 332.353 2820.52 355.756 2838.18 376.829L2796.26 445.532V509.623H2814.11V450.545L2850.49 390.919C2855.94 396.917 2861.49 402.708 2867.11 408.294L2849.85 458.108L2850.71 558.788L2868.55 558.63L2867.73 461.038L2881.3 421.845C2885.93 426.083 2890.58 430.173 2895.25 434.146L2913.04 526.547L2908.72 612.704L2926.56 613.6L2930.98 525.289L2916.75 451.434C2928.02 459.989 2939.24 467.777 2950.21 474.797L2981.03 535.427L2985.85 624.747L3003.68 623.783L2998.65 530.694L2978.85 491.715C3009.7 518.658 3044.59 527.753 3070.38 527.753C3125.01 527.753 3168.97 492.874 3158.36 450.397C3080.9 391.401 2879.01 295.951 2879.01 295.951Z" fill="black"/>
<path d="M2982.53 298.468C3014.66 282.4 3287.35 158.2 3202.11 73.5286C3115.46 -12.5303 2973.18 243.876 2955.75 277.052C2939.79 307.396 2950.39 314.536 2982.53 298.468Z" fill="black"/>
<path d="M3219.25 309.461C3209.92 225.517 3022.04 301.87 2998.27 312.166C2976.51 321.586 2979.12 330.033 3003.39 335.323C3027.67 340.613 3228.41 392.039 3219.25 309.461Z" fill="black"/>
<path d="M3025.67 123.166C3042.63 56.7922 3044.41 -3.97544 2991.27 0.203775C2897.17 7.60801 2920 191.102 2932.65 262.155C2945.99 237.72 2982.35 174.602 3025.67 123.166Z" fill="black"/>
</g>
<g clip-path="url(#clip3_1_302)">
<path d="M3535 295.951C3547.21 285.843 3555 270.562 3555 253.473C3555 223.04 3530.32 198.368 3499.88 198.368C3483.06 198.368 3467.99 205.92 3457.89 217.809C3450.12 196.804 3429.91 181.83 3406.19 181.83C3375.76 181.83 3351.09 206.511 3351.09 236.944C3351.09 267.377 3375.76 292.058 3406.19 292.058C3406.53 292.058 3406.85 292.039 3407.18 292.029L3310.41 472.178C3307.69 476.801 3309.21 482.767 3313.83 485.512L3317.19 487.488C3321.81 490.222 3327.78 488.688 3330.51 484.057L3446.21 306.63C3460.17 332.353 3476.5 355.756 3494.16 376.829L3452.24 445.532V509.623H3470.09V450.545L3506.47 390.919C3511.92 396.917 3517.48 402.708 3523.09 408.294L3505.83 458.108L3506.69 558.788L3524.54 558.63L3523.71 461.038L3537.29 421.845C3541.91 426.083 3546.56 430.173 3551.23 434.146L3569.02 526.547L3564.7 612.704L3582.54 613.6L3586.97 525.289L3572.74 451.434C3584.01 459.989 3595.23 467.777 3606.2 474.797L3637.02 535.427L3641.83 624.747L3659.66 623.783L3654.64 530.694L3634.83 491.715C3665.69 518.658 3700.58 527.753 3726.36 527.753C3780.99 527.753 3824.96 492.874 3814.34 450.397C3736.89 391.401 3535 295.951 3535 295.951Z" fill="black"/>
<path d="M3638.51 298.468C3670.64 282.4 3943.33 158.2 3858.09 73.5286C3771.44 -12.5303 3629.17 243.876 3611.74 277.052C3595.78 307.396 3606.38 314.536 3638.51 298.468Z" fill="black"/>
<path d="M3875.23 309.461C3865.91 225.517 3678.03 301.87 3654.25 312.166C3632.49 321.586 3635.11 330.033 3659.38 335.323C3683.65 340.613 3884.39 392.039 3875.23 309.461Z" fill="black"/>
<path d="M3681.66 123.166C3698.62 56.7922 3700.39 -3.97544 3647.25 0.203775C3553.16 7.60801 3575.98 191.102 3588.64 262.155C3601.97 237.72 3638.33 174.602 3681.66 123.166Z" fill="black"/>
</g>
<g clip-path="url(#clip4_1_302)">
<path d="M4190.98 295.951C4203.2 285.843 4210.98 270.562 4210.98 253.473C4210.98 223.04 4186.3 198.368 4155.87 198.368C4139.04 198.368 4123.98 205.92 4113.87 217.809C4106.1 196.804 4085.9 181.83 4062.18 181.83C4031.75 181.83 4007.07 206.511 4007.07 236.944C4007.07 267.377 4031.75 292.058 4062.18 292.058C4062.51 292.058 4062.84 292.039 4063.16 292.029L3966.4 472.178C3963.67 476.801 3965.2 482.767 3969.82 485.512L3973.17 487.488C3977.79 490.222 3983.76 488.688 3986.49 484.057L4102.19 306.63C4116.15 332.353 4132.49 355.756 4150.15 376.829L4108.23 445.532V509.623H4126.08V450.545L4162.46 390.919C4167.9 396.917 4173.46 402.708 4179.08 408.294L4161.82 458.108L4162.67 558.788L4180.52 558.63L4179.7 461.038L4193.27 421.845C4197.9 426.083 4202.55 430.173 4207.22 434.146L4225.01 526.547L4220.69 612.704L4238.53 613.6L4242.95 525.289L4228.72 451.434C4239.99 459.989 4251.21 467.777 4262.18 474.797L4293 535.427L4297.82 624.747L4315.65 623.783L4310.62 530.694L4290.82 491.715C4321.67 518.658 4356.56 527.753 4382.35 527.753C4436.98 527.753 4480.94 492.874 4470.32 450.397C4392.87 391.401 4190.98 295.951 4190.98 295.951Z" fill="black"/>
<path d="M4294.5 298.468C4326.63 282.4 4599.32 158.2 4514.08 73.5286C4427.43 -12.5303 4285.15 243.876 4267.72 277.052C4251.76 307.396 4262.36 314.536 4294.5 298.468Z" fill="black"/>
<path d="M4531.21 309.461C4521.89 225.517 4334.01 301.87 4310.24 312.166C4288.48 321.586 4291.09 330.033 4315.36 335.323C4339.64 340.613 4540.38 392.039 4531.21 309.461Z" fill="black"/>
<path d="M4337.64 123.166C4354.6 56.7922 4356.37 -3.97544 4303.24 0.203775C4209.14 7.60801 4231.97 191.102 4244.62 262.155C4257.96 237.72 4294.32 174.602 4337.64 123.166Z" fill="black"/>
</g>
<g clip-path="url(#clip5_1_302)">
<path d="M4846.97 295.951C4859.18 285.843 4866.97 270.562 4866.97 253.473C4866.97 223.04 4842.29 198.368 4811.85 198.368C4795.03 198.368 4779.96 205.92 4769.86 217.809C4762.09 196.804 4741.88 181.83 4718.16 181.83C4687.73 181.83 4663.06 206.511 4663.06 236.944C4663.06 267.377 4687.73 292.058 4718.16 292.058C4718.5 292.058 4718.82 292.039 4719.15 292.029L4622.38 472.178C4619.66 476.801 4621.18 482.767 4625.8 485.512L4629.16 487.488C4633.78 490.222 4639.75 488.688 4642.48 484.057L4758.17 306.63C4772.14 332.353 4788.47 355.756 4806.13 376.829L4764.21 445.532V509.623H4782.06V450.545L4818.44 390.919C4823.89 396.917 4829.45 402.708 4835.06 408.294L4817.8 458.108L4818.66 558.788L4836.51 558.63L4835.68 461.038L4849.26 421.845C4853.88 426.083 4858.53 430.173 4863.2 434.146L4880.99 526.547L4876.67 612.704L4894.51 613.6L4898.93 525.289L4884.71 451.434C4895.98 459.989 4907.2 467.777 4918.17 474.797L4948.99 535.427L4953.8 624.747L4971.63 623.783L4966.61 530.694L4946.8 491.715C4977.66 518.658 5012.55 527.753 5038.33 527.753C5092.96 527.753 5136.93 492.874 5126.31 450.397C5048.86 391.401 4846.97 295.951 4846.97 295.951Z" fill="black"/>
<path d="M4950.48 298.468C4982.61 282.4 5255.3 158.2 5170.06 73.5286C5083.41 -12.5303 4941.14 243.876 4923.7 277.052C4907.74 307.396 4918.35 314.536 4950.48 298.468Z" fill="black"/>
<path d="M5187.2 309.461C5177.88 225.517 4990 301.87 4966.22 312.166C4944.46 321.586 4947.08 330.033 4971.35 335.323C4995.62 340.613 5196.36 392.039 5187.2 309.461Z" fill="black"/>
<path d="M4993.63 123.166C5010.59 56.7922 5012.36 -3.97544 4959.22 0.203775C4865.13 7.60801 4887.95 191.102 4900.61 262.155C4913.94 237.72 4950.3 174.602 4993.63 123.166Z" fill="black"/>
</g>
<g clip-path="url(#clip6_1_302)">
<path d="M5502.95 295.951C5515.16 285.843 5522.95 270.562 5522.95 253.473C5522.95 223.04 5498.27 198.368 5467.84 198.368C5451.01 198.368 5435.95 205.92 5425.84 217.809C5418.07 196.804 5397.87 181.83 5374.15 181.83C5343.72 181.83 5319.04 206.511 5319.04 236.944C5319.04 267.377 5343.72 292.058 5374.15 292.058C5374.48 292.058 5374.81 292.039 5375.13 292.029L5278.36 472.178C5275.64 476.801 5277.17 482.767 5281.79 485.512L5285.14 487.488C5289.76 490.222 5295.73 488.688 5298.46 484.057L5414.16 306.63C5428.12 332.353 5444.46 355.756 5462.12 376.829L5420.2 445.532V509.623H5438.05V450.545L5474.43 390.919C5479.87 396.917 5485.43 402.708 5491.05 408.294L5473.79 458.108L5474.64 558.788L5492.49 558.63L5491.66 461.038L5505.24 421.845C5509.87 426.083 5514.52 430.173 5519.19 434.146L5536.97 526.547L5532.66 612.704L5550.49 613.6L5554.92 525.289L5540.69 451.434C5551.96 459.989 5563.18 467.777 5574.15 474.797L5604.97 535.427L5609.79 624.747L5627.62 623.783L5622.59 530.694L5602.79 491.715C5633.64 518.658 5668.53 527.753 5694.32 527.753C5748.95 527.753 5792.91 492.874 5782.29 450.397C5704.84 391.401 5502.95 295.951 5502.95 295.951Z" fill="black"/>
<path d="M5606.46 298.468C5638.6 282.4 5911.29 158.2 5826.05 73.5286C5739.4 -12.5303 5597.12 243.876 5579.69 277.052C5563.73 307.396 5574.33 314.536 5606.46 298.468Z" fill="black"/>
<path d="M5843.18 309.461C5833.86 225.517 5645.98 301.87 5622.21 312.166C5600.45 321.586 5603.06 330.033 5627.33 335.323C5651.61 340.613 5852.35 392.039 5843.18 309.461Z" fill="black"/>
<path d="M5649.61 123.166C5666.57 56.7922 5668.34 -3.97544 5615.21 0.203775C5521.11 7.60801 5543.94 191.102 5556.59 262.155C5569.92 237.72 5606.29 174.602 5649.61 123.166Z" fill="black"/>
</g>
<g clip-path="url(#clip7_1_302)">
<path d="M6158.94 295.951C6171.15 285.843 6178.94 270.562 6178.94 253.473C6178.94 223.04 6154.26 198.368 6123.82 198.368C6107 198.368 6091.93 205.92 6081.83 217.809C6074.06 196.804 6053.85 181.83 6030.13 181.83C5999.7 181.83 5975.03 206.511 5975.03 236.944C5975.03 267.377 5999.7 292.058 6030.13 292.058C6030.47 292.058 6030.79 292.039 6031.12 292.029L5934.35 472.178C5931.63 476.801 5933.15 482.767 5937.77 485.512L5941.13 487.488C5945.75 490.222 5951.71 488.688 5954.45 484.057L6070.14 306.63C6084.11 332.353 6100.44 355.756 6118.1 376.829L6076.18 445.532V509.623H6094.03V450.545L6130.41 390.919C6135.86 396.917 6141.42 402.708 6147.03 408.294L6129.77 458.108L6130.63 558.788L6148.48 558.63L6147.65 461.038L6161.23 421.845C6165.85 426.083 6170.5 430.173 6175.17 434.146L6192.96 526.547L6188.64 612.704L6206.48 613.6L6210.9 525.289L6196.68 451.434C6207.95 459.989 6219.16 467.777 6230.14 474.797L6260.95 535.427L6265.77 624.747L6283.6 623.783L6278.58 530.694L6258.77 491.715C6289.63 518.658 6324.52 527.753 6350.3 527.753C6404.93 527.753 6448.9 492.874 6438.28 450.397C6360.83 391.401 6158.94 295.951 6158.94 295.951Z" fill="black"/>
<path d="M6262.45 298.468C6294.58 282.4 6567.27 158.2 6482.03 73.5286C6395.38 -12.5303 6253.11 243.876 6235.67 277.052C6219.71 307.396 6230.32 314.536 6262.45 298.468Z" fill="black"/>
<path d="M6499.17 309.461C6489.85 225.517 6301.97 301.87 6278.19 312.166C6256.43 321.586 6259.05 330.033 6283.31 335.323C6307.59 340.613 6508.33 392.039 6499.17 309.461Z" fill="black"/>
<path d="M6305.6 123.166C6322.56 56.7922 6324.33 -3.97544 6271.19 0.203775C6177.1 7.60801 6199.92 191.102 6212.58 262.155C6225.91 237.72 6262.27 174.602 6305.6 123.166Z" fill="black"/>
</g>
<g clip-path="url(#clip8_1_302)">
<path d="M6814.92 295.951C6827.13 285.843 6834.92 270.562 6834.92 253.473C6834.92 223.04 6810.24 198.368 6779.81 198.368C6762.98 198.368 6747.92 205.92 6737.81 217.809C6730.04 196.804 6709.84 181.83 6686.12 181.83C6655.69 181.83 6631.01 206.511 6631.01 236.944C6631.01 267.377 6655.69 292.058 6686.12 292.058C6686.45 292.058 6686.78 292.039 6687.1 292.029L6590.33 472.178C6587.61 476.801 6589.14 482.767 6593.76 485.512L6597.11 487.488C6601.73 490.222 6607.7 488.688 6610.43 484.057L6726.13 306.63C6740.09 332.353 6756.42 355.756 6774.08 376.829L6732.17 445.532V509.623H6750.01V450.545L6786.4 390.919C6791.84 396.917 6797.4 402.708 6803.01 408.294L6785.76 458.108L6786.61 558.788L6804.46 558.63L6803.63 461.038L6817.21 421.845C6821.84 426.083 6826.49 430.173 6831.16 434.146L6848.94 526.547L6844.63 612.704L6862.46 613.6L6866.89 525.289L6852.66 451.434C6863.93 459.989 6875.15 467.777 6886.12 474.797L6916.94 535.427L6921.76 624.747L6939.59 623.783L6934.56 530.694L6914.76 491.715C6945.61 518.658 6980.5 527.753 7006.29 527.753C7060.92 527.753 7104.88 492.874 7094.26 450.397C7016.81 391.401 6814.92 295.951 6814.92 295.951Z" fill="black"/>
<path d="M6918.43 298.468C6950.57 282.4 7223.26 158.2 7138.02 73.5286C7051.37 -12.5303 6909.09 243.876 6891.66 277.052C6875.7 307.396 6886.3 314.536 6918.43 298.468Z" fill="black"/>
<path d="M7155.15 309.461C7145.83 225.517 6957.95 301.87 6934.18 312.166C6912.42 321.586 6915.03 330.033 6939.3 335.323C6963.58 340.613 7164.32 392.039 7155.15 309.461Z" fill="black"/>
<path d="M6961.58 123.166C6978.54 56.7922 6980.31 -3.97544 6927.17 0.203775C6833.08 7.60801 6855.91 191.102 6868.56 262.155C6881.89 237.72 6918.26 174.602 6961.58 123.166Z" fill="black"/>
</g>
<g clip-path="url(#clip9_1_302)">
<path d="M7470.91 295.951C7483.12 285.843 7490.91 270.562 7490.91 253.473C7490.91 223.04 7466.23 198.368 7435.79 198.368C7418.97 198.368 7403.9 205.92 7393.79 217.809C7386.03 196.804 7365.82 181.83 7342.1 181.83C7311.67 181.83 7287 206.511 7287 236.944C7287 267.377 7311.67 292.058 7342.1 292.058C7342.44 292.058 7342.76 292.039 7343.09 292.029L7246.32 472.178C7243.6 476.801 7245.12 482.767 7249.74 485.512L7253.09 487.488C7257.72 490.222 7263.68 488.688 7266.42 484.057L7382.11 306.63C7396.08 332.353 7412.41 355.756 7430.07 376.829L7388.15 445.532V509.623H7406V450.545L7442.38 390.919C7447.83 396.917 7453.38 402.708 7459 408.294L7441.74 458.108L7442.6 558.788L7460.44 558.63L7459.62 461.038L7473.2 421.845C7477.82 426.083 7482.47 430.173 7487.14 434.146L7504.93 526.547L7500.61 612.704L7518.45 613.6L7522.87 525.289L7508.65 451.434C7519.91 459.989 7531.13 467.777 7542.11 474.797L7572.92 535.427L7577.74 624.747L7595.57 623.783L7590.54 530.694L7570.74 491.715C7601.6 518.658 7636.48 527.753 7662.27 527.753C7716.9 527.753 7760.87 492.874 7750.25 450.397C7672.8 391.401 7470.91 295.951 7470.91 295.951Z" fill="black"/>
<path d="M7574.42 298.468C7606.55 282.4 7879.24 158.2 7794 73.5286C7707.35 -12.5303 7565.08 243.876 7547.64 277.052C7531.68 307.396 7542.28 314.536 7574.42 298.468Z" fill="black"/>
<path d="M7811.14 309.461C7801.82 225.517 7613.94 301.87 7590.16 312.166C7568.4 321.586 7571.02 330.033 7595.28 335.323C7619.56 340.613 7820.3 392.039 7811.14 309.461Z" fill="black"/>
<path d="M7617.57 123.166C7634.53 56.7922 7636.3 -3.97544 7583.16 0.203775C7489.07 7.60801 7511.89 191.102 7524.54 262.155C7537.88 237.72 7574.24 174.602 7617.57 123.166Z" fill="black"/>
</g>
<g clip-path="url(#clip10_1_302)">
<path d="M8126.89 295.951C8139.1 285.843 8146.89 270.562 8146.89 253.473C8146.89 223.04 8122.21 198.368 8091.78 198.368C8074.95 198.368 8059.89 205.92 8049.78 217.809C8042.01 196.804 8021.8 181.83 7998.09 181.83C7967.65 181.83 7942.98 206.511 7942.98 236.944C7942.98 267.377 7967.65 292.058 7998.09 292.058C7998.42 292.058 7998.75 292.039 7999.07 292.029L7902.3 472.178C7899.58 476.801 7901.1 482.767 7905.73 485.512L7909.08 487.488C7913.7 490.222 7919.67 488.688 7922.4 484.057L8038.1 306.63C8052.06 332.353 8068.39 355.756 8086.05 376.829L8044.14 445.532V509.623H8061.98V450.545L8098.37 390.919C8103.81 396.917 8109.37 402.708 8114.98 408.294L8097.73 458.108L8098.58 558.788L8116.43 558.63L8115.6 461.038L8129.18 421.845C8133.8 426.083 8138.45 430.173 8143.13 434.146L8160.91 526.547L8156.6 612.704L8174.43 613.6L8178.86 525.289L8164.63 451.434C8175.9 459.989 8187.12 467.777 8198.09 474.797L8228.91 535.427L8233.73 624.747L8251.55 623.783L8246.53 530.694L8226.73 491.715C8257.58 518.658 8292.47 527.753 8318.26 527.753C8372.88 527.753 8416.85 492.874 8406.23 450.397C8328.78 391.401 8126.89 295.951 8126.89 295.951Z" fill="black"/>
<path d="M8230.4 298.468C8262.54 282.4 8535.23 158.2 8449.98 73.5286C8363.34 -12.5303 8221.06 243.876 8203.63 277.052C8187.67 307.396 8198.27 314.536 8230.4 298.468Z" fill="black"/>
<path d="M8467.12 309.461C8457.8 225.517 8269.92 301.87 8246.15 312.166C8224.39 321.586 8227 330.033 8251.27 335.323C8275.55 340.613 8476.29 392.039 8467.12 309.461Z" fill="black"/>
<path d="M8273.55 123.166C8290.51 56.7922 8292.28 -3.97544 8239.14 0.203775C8145.05 7.60801 8167.87 191.102 8180.53 262.155C8193.86 237.72 8230.22 174.602 8273.55 123.166Z" fill="black"/>
</g>
<g clip-path="url(#clip11_1_302)">
<path d="M8782.88 295.951C8795.09 285.843 8802.88 270.562 8802.88 253.473C8802.88 223.04 8778.2 198.368 8747.76 198.368C8730.94 198.368 8715.87 205.92 8705.76 217.809C8698 196.804 8677.79 181.83 8654.07 181.83C8623.64 181.83 8598.97 206.511 8598.97 236.944C8598.97 267.377 8623.64 292.058 8654.07 292.058C8654.41 292.058 8654.73 292.039 8655.05 292.029L8558.29 472.178C8555.56 476.801 8557.09 482.767 8561.71 485.512L8565.06 487.488C8569.69 490.222 8575.65 488.688 8578.39 484.057L8694.08 306.63C8708.05 332.353 8724.38 355.756 8742.04 376.829L8700.12 445.532V509.623H8717.97V450.545L8754.35 390.919C8759.8 396.917 8765.35 402.708 8770.97 408.294L8753.71 458.108L8754.57 558.788L8772.41 558.63L8771.59 461.038L8785.17 421.845C8789.79 426.083 8794.44 430.173 8799.11 434.146L8816.9 526.547L8812.58 612.704L8830.42 613.6L8834.84 525.289L8820.62 451.434C8831.88 459.989 8843.1 467.777 8854.08 474.797L8884.89 535.427L8889.71 624.747L8907.54 623.783L8902.51 530.694L8882.71 491.715C8913.57 518.658 8948.45 527.753 8974.24 527.753C9028.87 527.753 9072.84 492.874 9062.22 450.397C8984.77 391.401 8782.88 295.951 8782.88 295.951Z" fill="black"/>
<path d="M8886.39 298.468C8918.52 282.4 9191.21 158.2 9105.97 73.5286C9019.32 -12.5303 8877.05 243.876 8859.61 277.052C8843.65 307.396 8854.25 314.536 8886.39 298.468Z" fill="black"/>
<path d="M9123.11 309.461C9113.79 225.517 8925.91 301.87 8902.13 312.166C8880.37 321.586 8882.99 330.033 8907.25 335.323C8931.53 340.613 9132.27 392.039 9123.11 309.461Z" fill="black"/>
<path d="M8929.53 123.166C8946.5 56.7922 8948.27 -3.97544 8895.13 0.203775C8801.04 7.60801 8823.86 191.102 8836.51 262.155C8849.85 237.72 8886.21 174.602 8929.53 123.166Z" fill="black"/>
</g>
<g clip-path="url(#clip12_1_302)">
<path d="M9438.86 295.951C9451.07 285.843 9458.86 270.562 9458.86 253.473C9458.86 223.04 9434.18 198.368 9403.75 198.368C9386.92 198.368 9371.86 205.92 9361.75 217.809C9353.98 196.804 9333.77 181.83 9310.06 181.83C9279.62 181.83 9254.95 206.511 9254.95 236.944C9254.95 267.377 9279.62 292.058 9310.06 292.058C9310.39 292.058 9310.71 292.039 9311.04 292.029L9214.27 472.178C9211.55 476.801 9213.07 482.767 9217.7 485.512L9221.05 487.488C9225.67 490.222 9231.64 488.688 9234.37 484.057L9350.07 306.63C9364.03 332.353 9380.36 355.756 9398.02 376.829L9356.11 445.532V509.623H9373.95V450.545L9410.34 390.919C9415.78 396.917 9421.34 402.708 9426.95 408.294L9409.7 458.108L9410.55 558.788L9428.4 558.63L9427.57 461.038L9441.15 421.845C9445.77 426.083 9450.42 430.173 9455.09 434.146L9472.88 526.547L9468.57 612.704L9486.4 613.6L9490.83 525.289L9476.6 451.434C9487.87 459.989 9499.09 467.777 9510.06 474.797L9540.88 535.427L9545.7 624.747L9563.52 623.783L9558.5 530.694L9538.7 491.715C9569.55 518.658 9604.44 527.753 9630.23 527.753C9684.85 527.753 9728.82 492.874 9718.2 450.397C9640.75 391.401 9438.86 295.951 9438.86 295.951Z" fill="black"/>
<path d="M9542.37 298.468C9574.51 282.4 9847.2 158.2 9761.95 73.5286C9675.3 -12.5303 9533.03 243.876 9515.6 277.052C9499.64 307.396 9510.24 314.536 9542.37 298.468Z" fill="black"/>
<path d="M9779.09 309.461C9769.77 225.517 9581.89 301.87 9558.12 312.166C9536.35 321.586 9538.97 330.033 9563.24 335.323C9587.52 340.613 9788.26 392.039 9779.09 309.461Z" fill="black"/>
<path d="M9585.52 123.166C9602.48 56.7922 9604.25 -3.97544 9551.11 0.203775C9457.02 7.60801 9479.84 191.102 9492.5 262.155C9505.83 237.72 9542.19 174.602 9585.52 123.166Z" fill="black"/>
</g>
<g clip-path="url(#clip13_1_302)">
<path d="M10094.8 295.951C10107.1 285.843 10114.8 270.562 10114.8 253.473C10114.8 223.04 10090.2 198.368 10059.7 198.368C10042.9 198.368 10027.8 205.92 10017.7 217.809C10010 196.804 9989.76 181.83 9966.04 181.83C9935.61 181.83 9910.94 206.511 9910.94 236.944C9910.94 267.377 9935.61 292.058 9966.04 292.058C9966.37 292.058 9966.7 292.039 9967.02 292.029L9870.26 472.178C9867.53 476.801 9869.06 482.767 9873.68 485.512L9877.03 487.488C9881.66 490.222 9887.62 488.688 9890.36 484.057L10006.1 306.63C10020 332.353 10036.3 355.756 10054 376.829L10012.1 445.532V509.623H10029.9V450.545L10066.3 390.919C10071.8 396.917 10077.3 402.708 10082.9 408.294L10065.7 458.108L10066.5 558.788L10084.4 558.63L10083.6 461.038L10097.1 421.845C10101.8 426.083 10106.4 430.173 10111.1 434.146L10128.9 526.547L10124.6 612.704L10142.4 613.6L10146.8 525.289L10132.6 451.434C10143.9 459.989 10155.1 467.777 10166 474.797L10196.9 535.427L10201.7 624.747L10219.5 623.783L10214.5 530.694L10194.7 491.715C10225.5 518.658 10260.4 527.753 10286.2 527.753C10340.8 527.753 10384.8 492.874 10374.2 450.397C10296.7 391.401 10094.8 295.951 10094.8 295.951Z" fill="black"/>
<path d="M10198.4 298.468C10230.5 282.4 10503.2 158.2 10417.9 73.5286C10331.3 -12.5303 10189 243.876 10171.6 277.052C10155.6 307.396 10166.2 314.536 10198.4 298.468Z" fill="black"/>
<path d="M10435.1 309.461C10425.8 225.517 10237.9 301.87 10214.1 312.166C10192.3 321.586 10195 330.033 10219.2 335.323C10243.5 340.613 10444.2 392.039 10435.1 309.461Z" fill="black"/>
<path d="M10241.5 123.166C10258.5 56.7922 10260.2 -3.97544 10207.1 0.203775C10113 7.60801 10135.8 191.102 10148.5 262.155C10161.8 237.72 10198.2 174.602 10241.5 123.166Z" fill="black"/>
</g>
<g clip-path="url(#clip14_1_302)">
<path d="M10750.8 295.951C10763 285.843 10770.8 270.562 10770.8 253.473C10770.8 223.04 10746.1 198.368 10715.7 198.368C10698.9 198.368 10683.8 205.92 10673.7 217.809C10666 196.804 10645.7 181.83 10622 181.83C10591.6 181.83 10566.9 206.511 10566.9 236.944C10566.9 267.377 10591.6 292.058 10622 292.058C10622.4 292.058 10622.7 292.039 10623 292.029L10526.2 472.178C10523.5 476.801 10525 482.767 10529.7 485.512L10533 487.488C10537.6 490.222 10543.6 488.688 10546.3 484.057L10662 306.63C10676 332.353 10692.3 355.756 10710 376.829L10668.1 445.532V509.623H10685.9V450.545L10722.3 390.919C10727.8 396.917 10733.3 402.708 10738.9 408.294L10721.7 458.108L10722.5 558.788L10740.4 558.63L10739.5 461.038L10753.1 421.845C10757.7 426.083 10762.4 430.173 10767.1 434.146L10784.9 526.547L10780.5 612.704L10798.4 613.6L10802.8 525.289L10788.6 451.434C10799.8 459.989 10811.1 467.777 10822 474.797L10852.8 535.427L10857.7 624.747L10875.5 623.783L10870.5 530.694L10850.7 491.715C10881.5 518.658 10916.4 527.753 10942.2 527.753C10996.8 527.753 11040.8 492.874 11030.2 450.397C10952.7 391.401 10750.8 295.951 10750.8 295.951Z" fill="black"/>
<path d="M10854.3 298.468C10886.5 282.4 11159.2 158.2 11073.9 73.5286C10987.3 -12.5303 10845 243.876 10827.6 277.052C10811.6 307.396 10822.2 314.536 10854.3 298.468Z" fill="black"/>
<path d="M11091.1 309.461C11081.7 225.517 10893.9 301.87 10870.1 312.166C10848.3 321.586 10850.9 330.033 10875.2 335.323C10899.5 340.613 11100.2 392.039 11091.1 309.461Z" fill="black"/>
<path d="M10897.5 123.166C10914.5 56.7922 10916.2 -3.97544 10863.1 0.203775C10769 7.60801 10791.8 191.102 10804.5 262.155C10817.8 237.72 10854.2 174.602 10897.5 123.166Z" fill="black"/>
</g>
<g clip-path="url(#clip15_1_302)">
<path d="M11406.8 295.951C11419 285.843 11426.8 270.562 11426.8 253.473C11426.8 223.04 11402.1 198.368 11371.7 198.368C11354.9 198.368 11339.8 205.92 11329.7 217.809C11321.9 196.804 11301.7 181.83 11278 181.83C11247.6 181.83 11222.9 206.511 11222.9 236.944C11222.9 267.377 11247.6 292.058 11278 292.058C11278.3 292.058 11278.7 292.039 11279 292.029L11182.2 472.178C11179.5 476.801 11181 482.767 11185.7 485.512L11189 487.488C11193.6 490.222 11199.6 488.688 11202.3 484.057L11318 306.63C11332 332.353 11348.3 355.756 11366 376.829L11324.1 445.532V509.623H11341.9V450.545L11378.3 390.919C11383.7 396.917 11389.3 402.708 11394.9 408.294L11377.6 458.108L11378.5 558.788L11396.4 558.63L11395.5 461.038L11409.1 421.845C11413.7 426.083 11418.4 430.173 11423 434.146L11440.8 526.547L11436.5 612.704L11454.4 613.6L11458.8 525.289L11444.6 451.434C11455.8 459.989 11467 467.777 11478 474.797L11508.8 535.427L11513.7 624.747L11531.5 623.783L11526.5 530.694L11506.6 491.715C11537.5 518.658 11572.4 527.753 11598.2 527.753C11652.8 527.753 11696.8 492.874 11686.2 450.397C11608.7 391.401 11406.8 295.951 11406.8 295.951Z" fill="black"/>
<path d="M11510.3 298.468C11542.5 282.4 11815.1 158.2 11729.9 73.5286C11643.3 -12.5303 11501 243.876 11483.6 277.052C11467.6 307.396 11478.2 314.536 11510.3 298.468Z" fill="black"/>
<path d="M11747 309.461C11737.7 225.517 11549.8 301.87 11526.1 312.166C11504.3 321.586 11506.9 330.033 11531.2 335.323C11555.5 340.613 11756.2 392.039 11747 309.461Z" fill="black"/>
<path d="M11553.5 123.166C11570.4 56.7922 11572.2 -3.97544 11519.1 0.203775C11425 7.60801 11447.8 191.102 11460.5 262.155C11473.8 237.72 11510.1 174.602 11553.5 123.166Z" fill="black"/>
</g>
<g clip-path="url(#clip16_1_302)">
<path d="M12062.8 295.951C12075 285.843 12082.8 270.562 12082.8 253.473C12082.8 223.04 12058.1 198.368 12027.7 198.368C12010.9 198.368 11995.8 205.92 11985.7 217.809C11977.9 196.804 11957.7 181.83 11934 181.83C11903.6 181.83 11878.9 206.511 11878.9 236.944C11878.9 267.377 11903.6 292.058 11934 292.058C11934.3 292.058 11934.7 292.039 11935 292.029L11838.2 472.178C11835.5 476.801 11837 482.767 11841.6 485.512L11845 487.488C11849.6 490.222 11855.6 488.688 11858.3 484.057L11974 306.63C11988 332.353 12004.3 355.756 12022 376.829L11980 445.532V509.623H11997.9V450.545L12034.3 390.919C12039.7 396.917 12045.3 402.708 12050.9 408.294L12033.6 458.108L12034.5 558.788L12052.3 558.63L12051.5 461.038L12065.1 421.845C12069.7 426.083 12074.4 430.173 12079 434.146L12096.8 526.547L12092.5 612.704L12110.3 613.6L12114.8 525.289L12100.5 451.434C12111.8 459.989 12123 467.777 12134 474.797L12164.8 535.427L12169.6 624.747L12187.5 623.783L12182.4 530.694L12162.6 491.715C12193.5 518.658 12228.4 527.753 12254.2 527.753C12308.8 527.753 12352.8 492.874 12342.1 450.397C12264.7 391.401 12062.8 295.951 12062.8 295.951Z" fill="black"/>
<path d="M12166.3 298.468C12198.4 282.4 12471.1 158.2 12385.9 73.5286C12299.2 -12.5303 12157 243.876 12139.5 277.052C12123.6 307.396 12134.2 314.536 12166.3 298.468Z" fill="black"/>
<path d="M12403 309.461C12393.7 225.517 12205.8 301.87 12182.1 312.166C12160.3 321.586 12162.9 330.033 12187.2 335.323C12211.5 340.613 12412.2 392.039 12403 309.461Z" fill="black"/>
<path d="M12209.5 123.166C12226.4 56.7922 12228.2 -3.97544 12175.1 0.203775C12081 7.60801 12103.8 191.102 12116.4 262.155C12129.8 237.72 12166.1 174.602 12209.5 123.166Z" fill="black"/>
</g>
<g clip-path="url(#clip17_1_302)">
<path d="M12718.8 295.951C12731 285.843 12738.8 270.562 12738.8 253.473C12738.8 223.04 12714.1 198.368 12683.7 198.368C12666.8 198.368 12651.8 205.92 12641.7 217.809C12633.9 196.804 12613.7 181.83 12590 181.83C12559.5 181.83 12534.9 206.511 12534.9 236.944C12534.9 267.377 12559.5 292.058 12590 292.058C12590.3 292.058 12590.6 292.039 12591 292.029L12494.2 472.178C12491.5 476.801 12493 482.767 12497.6 485.512L12501 487.488C12505.6 490.222 12511.6 488.688 12514.3 484.057L12630 306.63C12644 332.353 12660.3 355.756 12677.9 376.829L12636 445.532V509.623H12653.9V450.545L12690.3 390.919C12695.7 396.917 12701.3 402.708 12706.9 408.294L12689.6 458.108L12690.5 558.788L12708.3 558.63L12707.5 461.038L12721.1 421.845C12725.7 426.083 12730.3 430.173 12735 434.146L12752.8 526.547L12748.5 612.704L12766.3 613.6L12770.8 525.289L12756.5 451.434C12767.8 459.989 12779 467.777 12790 474.797L12820.8 535.427L12825.6 624.747L12843.4 623.783L12838.4 530.694L12818.6 491.715C12849.5 518.658 12884.4 527.753 12910.2 527.753C12964.8 527.753 13008.7 492.874 12998.1 450.397C12920.7 391.401 12718.8 295.951 12718.8 295.951Z" fill="black"/>
<path d="M12822.3 298.468C12854.4 282.4 13127.1 158.2 13041.9 73.5286C12955.2 -12.5303 12813 243.876 12795.5 277.052C12779.6 307.396 12790.2 314.536 12822.3 298.468Z" fill="black"/>
<path d="M13059 309.461C13049.7 225.517 12861.8 301.87 12838 312.166C12816.3 321.586 12818.9 330.033 12843.2 335.323C12867.4 340.613 13068.2 392.039 13059 309.461Z" fill="black"/>
<path d="M12865.4 123.166C12882.4 56.7922 12884.2 -3.97544 12831 0.203775C12736.9 7.60801 12759.8 191.102 12772.4 262.155C12785.8 237.72 12822.1 174.602 12865.4 123.166Z" fill="black"/>
</g>
<g clip-path="url(#clip18_1_302)">
<path d="M13374.8 295.951C13387 285.843 13394.8 270.562 13394.8 253.473C13394.8 223.04 13370.1 198.368 13339.7 198.368C13322.8 198.368 13307.8 205.92 13297.7 217.809C13289.9 196.804 13269.7 181.83 13246 181.83C13215.5 181.83 13190.9 206.511 13190.9 236.944C13190.9 267.377 13215.5 292.058 13246 292.058C13246.3 292.058 13246.6 292.039 13246.9 292.029L13150.2 472.178C13147.5 476.801 13149 482.767 13153.6 485.512L13157 487.488C13161.6 490.222 13167.5 488.688 13170.3 484.057L13286 306.63C13299.9 332.353 13316.3 355.756 13333.9 376.829L13292 445.532V509.623H13309.9V450.545L13346.2 390.919C13351.7 396.917 13357.2 402.708 13362.9 408.294L13345.6 458.108L13346.5 558.788L13364.3 558.63L13363.5 461.038L13377.1 421.845C13381.7 426.083 13386.3 430.173 13391 434.146L13408.8 526.547L13404.5 612.704L13422.3 613.6L13426.7 525.289L13412.5 451.434C13423.8 459.989 13435 467.777 13446 474.797L13476.8 535.427L13481.6 624.747L13499.4 623.783L13494.4 530.694L13474.6 491.715C13505.5 518.658 13540.3 527.753 13566.1 527.753C13620.8 527.753 13664.7 492.874 13654.1 450.397C13576.7 391.401 13374.8 295.951 13374.8 295.951Z" fill="black"/>
<path d="M13478.3 298.468C13510.4 282.4 13783.1 158.2 13697.9 73.5286C13611.2 -12.5303 13468.9 243.876 13451.5 277.052C13435.5 307.396 13446.1 314.536 13478.3 298.468Z" fill="black"/>
<path d="M13715 309.461C13705.7 225.517 13517.8 301.87 13494 312.166C13472.3 321.586 13474.9 330.033 13499.1 335.323C13523.4 340.613 13724.2 392.039 13715 309.461Z" fill="black"/>
<path d="M13521.4 123.166C13538.4 56.7922 13540.2 -3.97544 13487 0.203775C13392.9 7.60801 13415.8 191.102 13428.4 262.155C13441.7 237.72 13478.1 174.602 13521.4 123.166Z" fill="black"/>
</g>
<g clip-path="url(#clip19_1_302)">
<path d="M14030.8 295.951C14043 285.843 14050.8 270.562 14050.8 253.473C14050.8 223.04 14026.1 198.368 13995.6 198.368C13978.8 198.368 13963.8 205.92 13953.6 217.809C13945.9 196.804 13925.7 181.83 13901.9 181.83C13871.5 181.83 13846.8 206.511 13846.8 236.944C13846.8 267.377 13871.5 292.058 13901.9 292.058C13902.3 292.058 13902.6 292.039 13902.9 292.029L13806.2 472.178C13803.4 476.801 13805 482.767 13809.6 485.512L13812.9 487.488C13817.6 490.222 13823.5 488.688 13826.3 484.057L13942 306.63C13955.9 332.353 13972.3 355.756 13989.9 376.829L13948 445.532V509.623H13965.8V450.545L14002.2 390.919C14007.7 396.917 14013.2 402.708 14018.8 408.294L14001.6 458.108L14002.4 558.788L14020.3 558.63L14019.5 461.038L14033 421.845C14037.7 426.083 14042.3 430.173 14047 434.146L14064.8 526.547L14060.5 612.704L14078.3 613.6L14082.7 525.289L14068.5 451.434C14079.8 459.989 14091 467.777 14102 474.797L14132.8 535.427L14137.6 624.747L14155.4 623.783L14150.4 530.694L14130.6 491.715C14161.4 518.658 14196.3 527.753 14222.1 527.753C14276.7 527.753 14320.7 492.874 14310.1 450.397C14232.6 391.401 14030.8 295.951 14030.8 295.951Z" fill="black"/>
<path d="M14134.3 298.468C14166.4 282.4 14439.1 158.2 14353.8 73.5286C14267.2 -12.5303 14124.9 243.876 14107.5 277.052C14091.5 307.396 14102.1 314.536 14134.3 298.468Z" fill="black"/>
<path d="M14371 309.461C14361.7 225.517 14173.8 301.87 14150 312.166C14128.2 321.586 14130.9 330.033 14155.1 335.323C14179.4 340.613 14380.2 392.039 14371 309.461Z" fill="black"/>
<path d="M14177.4 123.166C14194.4 56.7922 14196.1 -3.97544 14143 0.203775C14048.9 7.60801 14071.7 191.102 14084.4 262.155C14097.7 237.72 14134.1 174.602 14177.4 123.166Z" fill="black"/>
</g>
<g clip-path="url(#clip20_1_302)">
<path d="M14686.7 295.951C14699 285.843 14706.7 270.562 14706.7 253.473C14706.7 223.04 14682.1 198.368 14651.6 198.368C14634.8 198.368 14619.7 205.92 14609.6 217.809C14601.9 196.804 14581.7 181.83 14557.9 181.83C14527.5 181.83 14502.8 206.511 14502.8 236.944C14502.8 267.377 14527.5 292.058 14557.9 292.058C14558.3 292.058 14558.6 292.039 14558.9 292.029L14462.2 472.178C14459.4 476.801 14461 482.767 14465.6 485.512L14468.9 487.488C14473.5 490.222 14479.5 488.688 14482.3 484.057L14597.9 306.63C14611.9 332.353 14628.2 355.756 14645.9 376.829L14604 445.532V509.623H14621.8V450.545L14658.2 390.919C14663.7 396.917 14669.2 402.708 14674.8 408.294L14657.6 458.108L14658.4 558.788L14676.3 558.63L14675.5 461.038L14689 421.845C14693.7 426.083 14698.3 430.173 14703 434.146L14720.8 526.547L14716.4 612.704L14734.3 613.6L14738.7 525.289L14724.5 451.434C14735.7 459.989 14747 467.777 14757.9 474.797L14788.8 535.427L14793.6 624.747L14811.4 623.783L14806.4 530.694L14786.6 491.715C14817.4 518.658 14852.3 527.753 14878.1 527.753C14932.7 527.753 14976.7 492.874 14966.1 450.397C14888.6 391.401 14686.7 295.951 14686.7 295.951Z" fill="black"/>
<path d="M14790.3 298.468C14822.4 282.4 15095.1 158.2 15009.8 73.5286C14923.2 -12.5303 14780.9 243.876 14763.5 277.052C14747.5 307.396 14758.1 314.536 14790.3 298.468Z" fill="black"/>
<path d="M15027 309.461C15017.6 225.517 14829.8 301.87 14806 312.166C14784.2 321.586 14786.8 330.033 14811.1 335.323C14835.4 340.613 15036.1 392.039 15027 309.461Z" fill="black"/>
<path d="M14833.4 123.166C14850.4 56.7922 14852.1 -3.97544 14799 0.203775C14704.9 7.60801 14727.7 191.102 14740.4 262.155C14753.7 237.72 14790.1 174.602 14833.4 123.166Z" fill="black"/>
</g>
<g clip-path="url(#clip21_1_302)">
<path d="M15342.7 295.951C15354.9 285.843 15362.7 270.562 15362.7 253.473C15362.7 223.04 15338 198.368 15307.6 198.368C15290.8 198.368 15275.7 205.92 15265.6 217.809C15257.8 196.804 15237.6 181.83 15213.9 181.83C15183.5 181.83 15158.8 206.511 15158.8 236.944C15158.8 267.377 15183.5 292.058 15213.9 292.058C15214.3 292.058 15214.6 292.039 15214.9 292.029L15118.1 472.178C15115.4 476.801 15116.9 482.767 15121.6 485.512L15124.9 487.488C15129.5 490.222 15135.5 488.688 15138.2 484.057L15253.9 306.63C15267.9 332.353 15284.2 355.756 15301.9 376.829L15260 445.532V509.623H15277.8V450.545L15314.2 390.919C15319.6 396.917 15325.2 402.708 15330.8 408.294L15313.6 458.108L15314.4 558.788L15332.3 558.63L15331.4 461.038L15345 421.845C15349.6 426.083 15354.3 430.173 15359 434.146L15376.7 526.547L15372.4 612.704L15390.3 613.6L15394.7 525.289L15380.5 451.434C15391.7 459.989 15403 467.777 15413.9 474.797L15444.7 535.427L15449.6 624.747L15467.4 623.783L15462.4 530.694L15442.6 491.715C15473.4 518.658 15508.3 527.753 15534.1 527.753C15588.7 527.753 15632.7 492.874 15622.1 450.397C15544.6 391.401 15342.7 295.951 15342.7 295.951Z" fill="black"/>
<path d="M15446.2 298.468C15478.4 282.4 15751.1 158.2 15665.8 73.5286C15579.2 -12.5303 15436.9 243.876 15419.5 277.052C15403.5 307.396 15414.1 314.536 15446.2 298.468Z" fill="black"/>
<path d="M15683 309.461C15673.6 225.517 15485.8 301.87 15462 312.166C15440.2 321.586 15442.8 330.033 15467.1 335.323C15491.4 340.613 15692.1 392.039 15683 309.461Z" fill="black"/>
<path d="M15489.4 123.166C15506.3 56.7922 15508.1 -3.97544 15455 0.203775C15360.9 7.60801 15383.7 191.102 15396.4 262.155C15409.7 237.72 15446.1 174.602 15489.4 123.166Z" fill="black"/>
</g>
<g clip-path="url(#clip22_1_302)">
<path d="M15998.7 295.951C16010.9 285.843 16018.7 270.562 16018.7 253.473C16018.7 223.04 15994 198.368 15963.6 198.368C15946.8 198.368 15931.7 205.92 15921.6 217.809C15913.8 196.804 15893.6 181.83 15869.9 181.83C15839.5 181.83 15814.8 206.511 15814.8 236.944C15814.8 267.377 15839.5 292.058 15869.9 292.058C15870.2 292.058 15870.6 292.039 15870.9 292.029L15774.1 472.178C15771.4 476.801 15772.9 482.767 15777.5 485.512L15780.9 487.488C15785.5 490.222 15791.5 488.688 15794.2 484.057L15909.9 306.63C15923.9 332.353 15940.2 355.756 15957.9 376.829L15916 445.532V509.623H15933.8V450.545L15970.2 390.919C15975.6 396.917 15981.2 402.708 15986.8 408.294L15969.5 458.108L15970.4 558.788L15988.2 558.63L15987.4 461.038L16001 421.845C16005.6 426.083 16010.3 430.173 16014.9 434.146L16032.7 526.547L16028.4 612.704L16046.3 613.6L16050.7 525.289L16036.4 451.434C16047.7 459.989 16058.9 467.777 16069.9 474.797L16100.7 535.427L16105.5 624.747L16123.4 623.783L16118.3 530.694L16098.5 491.715C16129.4 518.658 16164.3 527.753 16190.1 527.753C16244.7 527.753 16288.7 492.874 16278.1 450.397C16200.6 391.401 15998.7 295.951 15998.7 295.951Z" fill="black"/>
<path d="M16102.2 298.468C16134.4 282.4 16407 158.2 16321.8 73.5286C16235.2 -12.5303 16092.9 243.876 16075.4 277.052C16059.5 307.396 16070.1 314.536 16102.2 298.468Z" fill="black"/>
<path d="M16338.9 309.461C16329.6 225.517 16141.7 301.87 16118 312.166C16096.2 321.586 16098.8 330.033 16123.1 335.323C16147.4 340.613 16348.1 392.039 16338.9 309.461Z" fill="black"/>
<path d="M16145.4 123.166C16162.3 56.7922 16164.1 -3.97544 16111 0.203775C16016.9 7.60801 16039.7 191.102 16052.3 262.155C16065.7 237.72 16102 174.602 16145.4 123.166Z" fill="black"/>
</g>
<g clip-path="url(#clip23_1_302)">
<path d="M16654.7 295.951C16666.9 285.843 16674.7 270.562 16674.7 253.473C16674.7 223.04 16650 198.368 16619.6 198.368C16602.8 198.368 16587.7 205.92 16577.6 217.809C16569.8 196.804 16549.6 181.83 16525.9 181.83C16495.5 181.83 16470.8 206.511 16470.8 236.944C16470.8 267.377 16495.5 292.058 16525.9 292.058C16526.2 292.058 16526.5 292.039 16526.9 292.029L16430.1 472.178C16427.4 476.801 16428.9 482.767 16433.5 485.512L16436.9 487.488C16441.5 490.222 16447.5 488.688 16450.2 484.057L16565.9 306.63C16579.9 332.353 16596.2 355.756 16613.9 376.829L16571.9 445.532V509.623H16589.8V450.545L16626.2 390.919C16631.6 396.917 16637.2 402.708 16642.8 408.294L16625.5 458.108L16626.4 558.788L16644.2 558.63L16643.4 461.038L16657 421.845C16661.6 426.083 16666.3 430.173 16670.9 434.146L16688.7 526.547L16684.4 612.704L16702.2 613.6L16706.7 525.289L16692.4 451.434C16703.7 459.989 16714.9 467.777 16725.9 474.797L16756.7 535.427L16761.5 624.747L16779.4 623.783L16774.3 530.694L16754.5 491.715C16785.4 518.658 16820.3 527.753 16846.1 527.753C16900.7 527.753 16944.7 492.874 16934 450.397C16856.6 391.401 16654.7 295.951 16654.7 295.951Z" fill="black"/>
<path d="M16758.2 298.468C16790.3 282.4 17063 158.2 16977.8 73.5286C16891.1 -12.5303 16748.9 243.876 16731.4 277.052C16715.5 307.396 16726.1 314.536 16758.2 298.468Z" fill="black"/>
<path d="M16994.9 309.461C16985.6 225.517 16797.7 301.87 16773.9 312.166C16752.2 321.586 16754.8 330.033 16779.1 335.323C16803.3 340.613 17004.1 392.039 16994.9 309.461Z" fill="black"/>
<path d="M16801.4 123.166C16818.3 56.7922 16820.1 -3.97544 16766.9 0.203775C16672.9 7.60801 16695.7 191.102 16708.3 262.155C16721.7 237.72 16758 174.602 16801.4 123.166Z" fill="black"/>
</g>
<g clip-path="url(#clip24_1_302)">
<path d="M17310.7 295.951C17322.9 285.843 17330.7 270.562 17330.7 253.473C17330.7 223.04 17306 198.368 17275.6 198.368C17258.7 198.368 17243.7 205.92 17233.6 217.809C17225.8 196.804 17205.6 181.83 17181.9 181.83C17151.4 181.83 17126.8 206.511 17126.8 236.944C17126.8 267.377 17151.4 292.058 17181.9 292.058C17182.2 292.058 17182.5 292.039 17182.9 292.029L17086.1 472.178C17083.4 476.801 17084.9 482.767 17089.5 485.512L17092.9 487.488C17097.5 490.222 17103.5 488.688 17106.2 484.057L17221.9 306.63C17235.8 332.353 17252.2 355.756 17269.8 376.829L17227.9 445.532V509.623H17245.8V450.545L17282.2 390.919C17287.6 396.917 17293.2 402.708 17298.8 408.294L17281.5 458.108L17282.4 558.788L17300.2 558.63L17299.4 461.038L17313 421.845C17317.6 426.083 17322.2 430.173 17326.9 434.146L17344.7 526.547L17340.4 612.704L17358.2 613.6L17362.6 525.289L17348.4 451.434C17359.7 459.989 17370.9 467.777 17381.9 474.797L17412.7 535.427L17417.5 624.747L17435.3 623.783L17430.3 530.694L17410.5 491.715C17441.4 518.658 17476.3 527.753 17502 527.753C17556.7 527.753 17600.6 492.874 17590 450.397C17512.6 391.401 17310.7 295.951 17310.7 295.951Z" fill="black"/>
<path d="M17414.2 298.468C17446.3 282.4 17719 158.2 17633.8 73.5286C17547.1 -12.5303 17404.8 243.876 17387.4 277.052C17371.5 307.396 17382.1 314.536 17414.2 298.468Z" fill="black"/>
<path d="M17650.9 309.461C17641.6 225.517 17453.7 301.87 17429.9 312.166C17408.2 321.586 17410.8 330.033 17435.1 335.323C17459.3 340.613 17660.1 392.039 17650.9 309.461Z" fill="black"/>
<path d="M17457.3 123.166C17474.3 56.7922 17476.1 -3.97544 17422.9 0.203775C17328.8 7.60801 17351.7 191.102 17364.3 262.155C17377.6 237.72 17414 174.602 17457.3 123.166Z" fill="black"/>
</g>
<g clip-path="url(#clip25_1_302)">
<path d="M17966.7 295.951C17978.9 285.843 17986.7 270.562 17986.7 253.473C17986.7 223.04 17962 198.368 17931.5 198.368C17914.7 198.368 17899.7 205.92 17889.6 217.809C17881.8 196.804 17861.6 181.83 17837.9 181.83C17807.4 181.83 17782.8 206.511 17782.8 236.944C17782.8 267.377 17807.4 292.058 17837.9 292.058C17838.2 292.058 17838.5 292.039 17838.8 292.029L17742.1 472.178C17739.4 476.801 17740.9 482.767 17745.5 485.512L17748.9 487.488C17753.5 490.222 17759.4 488.688 17762.2 484.057L17877.9 306.63C17891.8 332.353 17908.2 355.756 17925.8 376.829L17883.9 445.532V509.623H17901.8V450.545L17938.1 390.919C17943.6 396.917 17949.1 402.708 17954.8 408.294L17937.5 458.108L17938.4 558.788L17956.2 558.63L17955.4 461.038L17969 421.845C17973.6 426.083 17978.2 430.173 17982.9 434.146L18000.7 526.547L17996.4 612.704L18014.2 613.6L18018.6 525.289L18004.4 451.434C18015.7 459.989 18026.9 467.777 18037.9 474.797L18068.7 535.427L18073.5 624.747L18091.3 623.783L18086.3 530.694L18066.5 491.715C18097.4 518.658 18132.2 527.753 18158 527.753C18212.7 527.753 18256.6 492.874 18246 450.397C18168.6 391.401 17966.7 295.951 17966.7 295.951Z" fill="black"/>
<path d="M18070.2 298.468C18102.3 282.4 18375 158.2 18289.8 73.5286C18203.1 -12.5303 18060.8 243.876 18043.4 277.052C18027.4 307.396 18038 314.536 18070.2 298.468Z" fill="black"/>
<path d="M18306.9 309.461C18297.6 225.517 18109.7 301.87 18085.9 312.166C18064.2 321.586 18066.8 330.033 18091 335.323C18115.3 340.613 18316.1 392.039 18306.9 309.461Z" fill="black"/>
<path d="M18113.3 123.166C18130.3 56.7922 18132.1 -3.97544 18078.9 0.203775C17984.8 7.60801 18007.6 191.102 18020.3 262.155C18033.6 237.72 18070 174.602 18113.3 123.166Z" fill="black"/>
</g>
<g clip-path="url(#clip26_1_302)">
<path d="M18622.6 295.951C18634.9 285.843 18642.6 270.562 18642.6 253.473C18642.6 223.04 18618 198.368 18587.5 198.368C18570.7 198.368 18555.6 205.92 18545.5 217.809C18537.8 196.804 18517.6 181.83 18493.8 181.83C18463.4 181.83 18438.7 206.511 18438.7 236.944C18438.7 267.377 18463.4 292.058 18493.8 292.058C18494.2 292.058 18494.5 292.039 18494.8 292.029L18398.1 472.178C18395.3 476.801 18396.9 482.767 18401.5 485.512L18404.8 487.488C18409.5 490.222 18415.4 488.688 18418.2 484.057L18533.9 306.63C18547.8 332.353 18564.2 355.756 18581.8 376.829L18539.9 445.532V509.623H18557.7V450.545L18594.1 390.919C18599.6 396.917 18605.1 402.708 18610.7 408.294L18593.5 458.108L18594.3 558.788L18612.2 558.63L18611.4 461.038L18624.9 421.845C18629.6 426.083 18634.2 430.173 18638.9 434.146L18656.7 526.547L18652.4 612.704L18670.2 613.6L18674.6 525.289L18660.4 451.434C18671.7 459.989 18682.9 467.777 18693.8 474.797L18724.7 535.427L18729.5 624.747L18747.3 623.783L18742.3 530.694L18722.5 491.715C18753.3 518.658 18788.2 527.753 18814 527.753C18868.6 527.753 18912.6 492.874 18902 450.397C18824.5 391.401 18622.6 295.951 18622.6 295.951Z" fill="black"/>
<path d="M18726.2 298.468C18758.3 282.4 19031 158.2 18945.7 73.5286C18859.1 -12.5303 18716.8 243.876 18699.4 277.052C18683.4 307.396 18694 314.536 18726.2 298.468Z" fill="black"/>
<path d="M18962.9 309.461C18953.6 225.517 18765.7 301.87 18741.9 312.166C18720.1 321.586 18722.8 330.033 18747 335.323C18771.3 340.613 18972 392.039 18962.9 309.461Z" fill="black"/>
<path d="M18769.3 123.166C18786.3 56.7922 18788 -3.97544 18734.9 0.203775C18640.8 7.60801 18663.6 191.102 18676.3 262.155C18689.6 237.72 18726 174.602 18769.3 123.166Z" fill="black"/>
</g>
<g clip-path="url(#clip27_1_302)">
<path d="M19278.6 295.951C19290.8 285.843 19298.6 270.562 19298.6 253.473C19298.6 223.04 19274 198.368 19243.5 198.368C19226.7 198.368 19211.6 205.92 19201.5 217.809C19193.8 196.804 19173.5 181.83 19149.8 181.83C19119.4 181.83 19094.7 206.511 19094.7 236.944C19094.7 267.377 19119.4 292.058 19149.8 292.058C19150.2 292.058 19150.5 292.039 19150.8 292.029L19054 472.178C19051.3 476.801 19052.8 482.767 19057.5 485.512L19060.8 487.488C19065.4 490.222 19071.4 488.688 19074.1 484.057L19189.8 306.63C19203.8 332.353 19220.1 355.756 19237.8 376.829L19195.9 445.532V509.623H19213.7V450.545L19250.1 390.919C19255.6 396.917 19261.1 402.708 19266.7 408.294L19249.5 458.108L19250.3 558.788L19268.2 558.63L19267.3 461.038L19280.9 421.845C19285.5 426.083 19290.2 430.173 19294.9 434.146L19312.7 526.547L19308.3 612.704L19326.2 613.6L19330.6 525.289L19316.4 451.434C19327.6 459.989 19338.9 467.777 19349.8 474.797L19380.7 535.427L19385.5 624.747L19403.3 623.783L19398.3 530.694L19378.5 491.715C19409.3 518.658 19444.2 527.753 19470 527.753C19524.6 527.753 19568.6 492.874 19558 450.397C19480.5 391.401 19278.6 295.951 19278.6 295.951Z" fill="black"/>
<path d="M19382.1 298.468C19414.3 282.4 19687 158.2 19601.7 73.5286C19515.1 -12.5303 19372.8 243.876 19355.4 277.052C19339.4 307.396 19350 314.536 19382.1 298.468Z" fill="black"/>
<path d="M19618.9 309.461C19609.5 225.517 19421.7 301.87 19397.9 312.166C19376.1 321.586 19378.7 330.033 19403 335.323C19427.3 340.613 19628 392.039 19618.9 309.461Z" fill="black"/>
<path d="M19425.3 123.166C19442.3 56.7922 19444 -3.97544 19390.9 0.203775C19296.8 7.60801 19319.6 191.102 19332.3 262.155C19345.6 237.72 19382 174.602 19425.3 123.166Z" fill="black"/>
</g>
<g clip-path="url(#clip28_1_302)">
<path d="M19934.6 295.951C19946.8 285.843 19954.6 270.562 19954.6 253.473C19954.6 223.04 19929.9 198.368 19899.5 198.368C19882.7 198.368 19867.6 205.92 19857.5 217.809C19849.7 196.804 19829.5 181.83 19805.8 181.83C19775.4 181.83 19750.7 206.511 19750.7 236.944C19750.7 267.377 19775.4 292.058 19805.8 292.058C19806.1 292.058 19806.5 292.039 19806.8 292.029L19710 472.178C19707.3 476.801 19708.8 482.767 19713.5 485.512L19716.8 487.488C19721.4 490.222 19727.4 488.688 19730.1 484.057L19845.8 306.63C19859.8 332.353 19876.1 355.756 19893.8 376.829L19851.9 445.532V509.623H19869.7V450.545L19906.1 390.919C19911.5 396.917 19917.1 402.708 19922.7 408.294L19905.5 458.108L19906.3 558.788L19924.2 558.63L19923.3 461.038L19936.9 421.845C19941.5 426.083 19946.2 430.173 19950.9 434.146L19968.6 526.547L19964.3 612.704L19982.2 613.6L19986.6 525.289L19972.4 451.434C19983.6 459.989 19994.8 467.777 20005.8 474.797L20036.6 535.427L20041.5 624.747L20059.3 623.783L20054.3 530.694L20034.5 491.715C20065.3 518.658 20100.2 527.753 20126 527.753C20180.6 527.753 20224.6 492.874 20214 450.397C20136.5 391.401 19934.6 295.951 19934.6 295.951Z" fill="black"/>
<path d="M20038.1 298.468C20070.3 282.4 20343 158.2 20257.7 73.5286C20171.1 -12.5303 20028.8 243.876 20011.4 277.052C19995.4 307.396 20006 314.536 20038.1 298.468Z" fill="black"/>
<path d="M20274.8 309.461C20265.5 225.517 20077.6 301.87 20053.9 312.166C20032.1 321.586 20034.7 330.033 20059 335.323C20083.3 340.613 20284 392.039 20274.8 309.461Z" fill="black"/>
<path d="M20081.3 123.166C20098.2 56.7922 20100 -3.97544 20046.9 0.203775C19952.8 7.60801 19975.6 191.102 19988.3 262.155C20001.6 237.72 20038 174.602 20081.3 123.166Z" fill="black"/>
</g>
<g clip-path="url(#clip29_1_302)">
<path d="M20590.6 295.951C20602.8 285.843 20610.6 270.562 20610.6 253.473C20610.6 223.04 20585.9 198.368 20555.5 198.368C20538.7 198.368 20523.6 205.92 20513.5 217.809C20505.7 196.804 20485.5 181.83 20461.8 181.83C20431.4 181.83 20406.7 206.511 20406.7 236.944C20406.7 267.377 20431.4 292.058 20461.8 292.058C20462.1 292.058 20462.5 292.039 20462.8 292.029L20366 472.178C20363.3 476.801 20364.8 482.767 20369.4 485.512L20372.8 487.488C20377.4 490.222 20383.4 488.688 20386.1 484.057L20501.8 306.63C20515.8 332.353 20532.1 355.756 20549.8 376.829L20507.8 445.532V509.623H20525.7V450.545L20562.1 390.919C20567.5 396.917 20573.1 402.708 20578.7 408.294L20561.4 458.108L20562.3 558.788L20580.1 558.63L20579.3 461.038L20592.9 421.845C20597.5 426.083 20602.2 430.173 20606.8 434.146L20624.6 526.547L20620.3 612.704L20638.1 613.6L20642.6 525.289L20628.3 451.434C20639.6 459.989 20650.8 467.777 20661.8 474.797L20692.6 535.427L20697.4 624.747L20715.3 623.783L20710.2 530.694L20690.4 491.715C20721.3 518.658 20756.2 527.753 20782 527.753C20836.6 527.753 20880.6 492.874 20869.9 450.397C20792.5 391.401 20590.6 295.951 20590.6 295.951Z" fill="black"/>
<path d="M20694.1 298.468C20726.2 282.4 20998.9 158.2 20913.7 73.5286C20827 -12.5303 20684.8 243.876 20667.3 277.052C20651.4 307.396 20662 314.536 20694.1 298.468Z" fill="black"/>
<path d="M20930.8 309.461C20921.5 225.517 20733.6 301.87 20709.9 312.166C20688.1 321.586 20690.7 330.033 20715 335.323C20739.3 340.613 20940 392.039 20930.8 309.461Z" fill="black"/>
<path d="M20737.3 123.166C20754.2 56.7922 20756 -3.97544 20702.9 0.203775C20608.8 7.60801 20631.6 191.102 20644.2 262.155C20657.6 237.72 20693.9 174.602 20737.3 123.166Z" fill="black"/>
</g>
<g clip-path="url(#clip30_1_302)">
<path d="M21246.6 295.951C21258.8 285.843 21266.6 270.562 21266.6 253.473C21266.6 223.04 21241.9 198.368 21211.5 198.368C21194.6 198.368 21179.6 205.92 21169.5 217.809C21161.7 196.804 21141.5 181.83 21117.8 181.83C21087.4 181.83 21062.7 206.511 21062.7 236.944C21062.7 267.377 21087.4 292.058 21117.8 292.058C21118.1 292.058 21118.4 292.039 21118.8 292.029L21022 472.178C21019.3 476.801 21020.8 482.767 21025.4 485.512L21028.8 487.488C21033.4 490.222 21039.4 488.688 21042.1 484.057L21157.8 306.63C21171.8 332.353 21188.1 355.756 21205.7 376.829L21163.8 445.532V509.623H21181.7V450.545L21218.1 390.919C21223.5 396.917 21229.1 402.708 21234.7 408.294L21217.4 458.108L21218.3 558.788L21236.1 558.63L21235.3 461.038L21248.9 421.845C21253.5 426.083 21258.2 430.173 21262.8 434.146L21280.6 526.547L21276.3 612.704L21294.1 613.6L21298.6 525.289L21284.3 451.434C21295.6 459.989 21306.8 467.777 21317.8 474.797L21348.6 535.427L21353.4 624.747L21371.3 623.783L21366.2 530.694L21346.4 491.715C21377.3 518.658 21412.2 527.753 21438 527.753C21492.6 527.753 21536.5 492.874 21525.9 450.397C21448.5 391.401 21246.6 295.951 21246.6 295.951Z" fill="black"/>
<path d="M21350.1 298.468C21382.2 282.4 21654.9 158.2 21569.7 73.5286C21483 -12.5303 21340.8 243.876 21323.3 277.052C21307.4 307.396 21318 314.536 21350.1 298.468Z" fill="black"/>
<path d="M21586.8 309.461C21577.5 225.517 21389.6 301.87 21365.8 312.166C21344.1 321.586 21346.7 330.033 21371 335.323C21395.2 340.613 21596 392.039 21586.8 309.461Z" fill="black"/>
<path d="M21393.2 123.166C21410.2 56.7922 21412 -3.97544 21358.8 0.203775C21264.7 7.60801 21287.6 191.102 21300.2 262.155C21313.6 237.72 21349.9 174.602 21393.2 123.166Z" fill="black"/>
</g>
<g clip-path="url(#clip31_1_302)">
<path d="M21902.6 295.951C21914.8 285.843 21922.6 270.562 21922.6 253.473C21922.6 223.04 21897.9 198.368 21867.5 198.368C21850.6 198.368 21835.6 205.92 21825.5 217.809C21817.7 196.804 21797.5 181.83 21773.8 181.83C21743.3 181.83 21718.7 206.511 21718.7 236.944C21718.7 267.377 21743.3 292.058 21773.8 292.058C21774.1 292.058 21774.4 292.039 21774.8 292.029L21678 472.178C21675.3 476.801 21676.8 482.767 21681.4 485.512L21684.8 487.488C21689.4 490.222 21695.3 488.688 21698.1 484.057L21813.8 306.63C21827.7 332.353 21844.1 355.756 21861.7 376.829L21819.8 445.532V509.623H21837.7V450.545L21874 390.919C21879.5 396.917 21885 402.708 21890.7 408.294L21873.4 458.108L21874.3 558.788L21892.1 558.63L21891.3 461.038L21904.9 421.845C21909.5 426.083 21914.1 430.173 21918.8 434.146L21936.6 526.547L21932.3 612.704L21950.1 613.6L21954.5 525.289L21940.3 451.434C21951.6 459.989 21962.8 467.777 21973.8 474.797L22004.6 535.427L22009.4 624.747L22027.2 623.783L22022.2 530.694L22002.4 491.715C22033.3 518.658 22068.1 527.753 22093.9 527.753C22148.6 527.753 22192.5 492.874 22181.9 450.397C22104.5 391.401 21902.6 295.951 21902.6 295.951Z" fill="black"/>
<path d="M22006.1 298.468C22038.2 282.4 22310.9 158.2 22225.7 73.5286C22139 -12.5303 21996.7 243.876 21979.3 277.052C21963.3 307.396 21973.9 314.536 22006.1 298.468Z" fill="black"/>
<path d="M22242.8 309.461C22233.5 225.517 22045.6 301.87 22021.8 312.166C22000.1 321.586 22002.7 330.033 22026.9 335.323C22051.2 340.613 22252 392.039 22242.8 309.461Z" fill="black"/>
<path d="M22049.2 123.166C22066.2 56.7922 22068 -3.97544 22014.8 0.203775C21920.7 7.60801 21943.6 191.102 21956.2 262.155C21969.5 237.72 22005.9 174.602 22049.2 123.166Z" fill="black"/>
</g>
<g clip-path="url(#clip32_1_302)">
<path d="M22558.6 295.951C22570.8 285.843 22578.6 270.562 22578.6 253.473C22578.6 223.04 22553.9 198.368 22523.4 198.368C22506.6 198.368 22491.6 205.92 22481.4 217.809C22473.7 196.804 22453.5 181.83 22429.8 181.83C22399.3 181.83 22374.6 206.511 22374.6 236.944C22374.6 267.377 22399.3 292.058 22429.8 292.058C22430.1 292.058 22430.4 292.039 22430.7 292.029L22334 472.178C22331.2 476.801 22332.8 482.767 22337.4 485.512L22340.7 487.488C22345.4 490.222 22351.3 488.688 22354.1 484.057L22469.8 306.63C22483.7 332.353 22500.1 355.756 22517.7 376.829L22475.8 445.532V509.623H22493.6V450.545L22530 390.919C22535.5 396.917 22541 402.708 22546.6 408.294L22529.4 458.108L22530.2 558.788L22548.1 558.63L22547.3 461.038L22560.8 421.845C22565.5 426.083 22570.1 430.173 22574.8 434.146L22592.6 526.547L22588.3 612.704L22606.1 613.6L22610.5 525.289L22596.3 451.434C22607.6 459.989 22618.8 467.777 22629.8 474.797L22660.6 535.427L22665.4 624.747L22683.2 623.783L22678.2 530.694L22658.4 491.715C22689.2 518.658 22724.1 527.753 22749.9 527.753C22804.5 527.753 22848.5 492.874 22837.9 450.397C22760.4 391.401 22558.6 295.951 22558.6 295.951Z" fill="black"/>
<path d="M22662.1 298.468C22694.2 282.4 22966.9 158.2 22881.7 73.5286C22795 -12.5303 22652.7 243.876 22635.3 277.052C22619.3 307.396 22629.9 314.536 22662.1 298.468Z" fill="black"/>
<path d="M22898.8 309.461C22889.5 225.517 22701.6 301.87 22677.8 312.166C22656.1 321.586 22658.7 330.033 22682.9 335.323C22707.2 340.613 22908 392.039 22898.8 309.461Z" fill="black"/>
<path d="M22705.2 123.166C22722.2 56.7922 22723.9 -3.97544 22670.8 0.203775C22576.7 7.60801 22599.5 191.102 22612.2 262.155C22625.5 237.72 22661.9 174.602 22705.2 123.166Z" fill="black"/>
</g>
<g clip-path="url(#clip33_1_302)">
<path d="M23214.5 295.951C23226.8 285.843 23234.5 270.562 23234.5 253.473C23234.5 223.04 23209.9 198.368 23179.4 198.368C23162.6 198.368 23147.5 205.92 23137.4 217.809C23129.7 196.804 23109.5 181.83 23085.7 181.83C23055.3 181.83 23030.6 206.511 23030.6 236.944C23030.6 267.377 23055.3 292.058 23085.7 292.058C23086.1 292.058 23086.4 292.039 23086.7 292.029L22990 472.178C22987.2 476.801 22988.8 482.767 22993.4 485.512L22996.7 487.488C23001.4 490.222 23007.3 488.688 23010.1 484.057L23125.7 306.63C23139.7 332.353 23156 355.756 23173.7 376.829L23131.8 445.532V509.623H23149.6V450.545L23186 390.919C23191.5 396.917 23197 402.708 23202.6 408.294L23185.4 458.108L23186.2 558.788L23204.1 558.63L23203.3 461.038L23216.8 421.845C23221.5 426.083 23226.1 430.173 23230.8 434.146L23248.6 526.547L23244.2 612.704L23262.1 613.6L23266.5 525.289L23252.3 451.434C23263.5 459.989 23274.8 467.777 23285.7 474.797L23316.6 535.427L23321.4 624.747L23339.2 623.783L23334.2 530.694L23314.4 491.715C23345.2 518.658 23380.1 527.753 23405.9 527.753C23460.5 527.753 23504.5 492.874 23493.9 450.397C23416.4 391.401 23214.5 295.951 23214.5 295.951Z" fill="black"/>
<path d="M23318.1 298.468C23350.2 282.4 23622.9 158.2 23537.6 73.5286C23451 -12.5303 23308.7 243.876 23291.3 277.052C23275.3 307.396 23285.9 314.536 23318.1 298.468Z" fill="black"/>
<path d="M23554.8 309.461C23545.5 225.517 23357.6 301.87 23333.8 312.166C23312 321.586 23314.7 330.033 23338.9 335.323C23363.2 340.613 23563.9 392.039 23554.8 309.461Z" fill="black"/>
<path d="M23361.2 123.166C23378.2 56.7922 23379.9 -3.97544 23326.8 0.203775C23232.7 7.60801 23255.5 191.102 23268.2 262.155C23281.5 237.72 23317.9 174.602 23361.2 123.166Z" fill="black"/>
</g>
<g clip-path="url(#clip34_1_302)">
<path d="M23870.5 295.951C23882.7 285.843 23890.5 270.562 23890.5 253.473C23890.5 223.04 23865.8 198.368 23835.4 198.368C23818.6 198.368 23803.5 205.92 23793.4 217.809C23785.6 196.804 23765.4 181.83 23741.7 181.83C23711.3 181.83 23686.6 206.511 23686.6 236.944C23686.6 267.377 23711.3 292.058 23741.7 292.058C23742.1 292.058 23742.4 292.039 23742.7 292.029L23645.9 472.178C23643.2 476.801 23644.7 482.767 23649.4 485.512L23652.7 487.488C23657.3 490.222 23663.3 488.688 23666 484.057L23781.7 306.63C23795.7 332.353 23812 355.756 23829.7 376.829L23787.8 445.532V509.623H23805.6V450.545L23842 390.919C23847.4 396.917 23853 402.708 23858.6 408.294L23841.4 458.108L23842.2 558.788L23860.1 558.63L23859.2 461.038L23872.8 421.845C23877.4 426.083 23882.1 430.173 23886.8 434.146L23904.5 526.547L23900.2 612.704L23918.1 613.6L23922.5 525.289L23908.3 451.434C23919.5 459.989 23930.8 467.777 23941.7 474.797L23972.5 535.427L23977.4 624.747L23995.2 623.783L23990.2 530.694L23970.4 491.715C24001.2 518.658 24036.1 527.753 24061.9 527.753C24116.5 527.753 24160.5 492.874 24149.9 450.397C24072.4 391.401 23870.5 295.951 23870.5 295.951Z" fill="black"/>
<path d="M23974 298.468C24006.2 282.4 24278.9 158.2 24193.6 73.5286C24107 -12.5303 23964.7 243.876 23947.3 277.052C23931.3 307.396 23941.9 314.536 23974 298.468Z" fill="black"/>
<path d="M24210.8 309.461C24201.4 225.517 24013.6 301.87 23989.8 312.166C23968 321.586 23970.6 330.033 23994.9 335.323C24019.2 340.613 24219.9 392.039 24210.8 309.461Z" fill="black"/>
<path d="M24017.2 123.166C24034.1 56.7922 24035.9 -3.97544 23982.8 0.203775C23888.7 7.60801 23911.5 191.102 23924.2 262.155C23937.5 237.72 23973.9 174.602 24017.2 123.166Z" fill="black"/>
</g>
<g clip-path="url(#clip35_1_302)">
<path d="M24526.5 295.951C24538.7 285.843 24546.5 270.562 24546.5 253.473C24546.5 223.04 24521.8 198.368 24491.4 198.368C24474.6 198.368 24459.5 205.92 24449.4 217.809C24441.6 196.804 24421.4 181.83 24397.7 181.83C24367.3 181.83 24342.6 206.511 24342.6 236.944C24342.6 267.377 24367.3 292.058 24397.7 292.058C24398 292.058 24398.4 292.039 24398.7 292.029L24301.9 472.178C24299.2 476.801 24300.7 482.767 24305.3 485.512L24308.7 487.488C24313.3 490.222 24319.3 488.688 24322 484.057L24437.7 306.63C24451.7 332.353 24468 355.756 24485.7 376.829L24443.8 445.532V509.623H24461.6V450.545L24498 390.919C24503.4 396.917 24509 402.708 24514.6 408.294L24497.3 458.108L24498.2 558.788L24516 558.63L24515.2 461.038L24528.8 421.845C24533.4 426.083 24538.1 430.173 24542.7 434.146L24560.5 526.547L24556.2 612.704L24574.1 613.6L24578.5 525.289L24564.2 451.434C24575.5 459.989 24586.7 467.777 24597.7 474.797L24628.5 535.427L24633.3 624.747L24651.2 623.783L24646.1 530.694L24626.3 491.715C24657.2 518.658 24692.1 527.753 24717.9 527.753C24772.5 527.753 24816.5 492.874 24805.9 450.397C24728.4 391.401 24526.5 295.951 24526.5 295.951Z" fill="black"/>
<path d="M24630 298.468C24662.2 282.4 24934.8 158.2 24849.6 73.5286C24763 -12.5303 24620.7 243.876 24603.2 277.052C24587.3 307.396 24597.9 314.536 24630 298.468Z" fill="black"/>
<path d="M24866.7 309.461C24857.4 225.517 24669.5 301.87 24645.8 312.166C24624 321.586 24626.6 330.033 24650.9 335.323C24675.2 340.613 24875.9 392.039 24866.7 309.461Z" fill="black"/>
<path d="M24673.2 123.166C24690.1 56.7922 24691.9 -3.97544 24638.8 0.203775C24544.7 7.60801 24567.5 191.102 24580.1 262.155C24593.5 237.72 24629.8 174.602 24673.2 123.166Z" fill="black"/>
</g>
<g clip-path="url(#clip36_1_302)">
<path d="M25182.5 295.951C25194.7 285.843 25202.5 270.562 25202.5 253.473C25202.5 223.04 25177.8 198.368 25147.4 198.368C25130.6 198.368 25115.5 205.92 25105.4 217.809C25097.6 196.804 25077.4 181.83 25053.7 181.83C25023.3 181.83 24998.6 206.511 24998.6 236.944C24998.6 267.377 25023.3 292.058 25053.7 292.058C25054 292.058 25054.3 292.039 25054.7 292.029L24957.9 472.178C24955.2 476.801 24956.7 482.767 24961.3 485.512L24964.7 487.488C24969.3 490.222 24975.3 488.688 24978 484.057L25093.7 306.63C25107.7 332.353 25124 355.756 25141.7 376.829L25099.7 445.532V509.623H25117.6V450.545L25154 390.919C25159.4 396.917 25165 402.708 25170.6 408.294L25153.3 458.108L25154.2 558.788L25172 558.63L25171.2 461.038L25184.8 421.845C25189.4 426.083 25194.1 430.173 25198.7 434.146L25216.5 526.547L25212.2 612.704L25230 613.6L25234.5 525.289L25220.2 451.434C25231.5 459.989 25242.7 467.777 25253.7 474.797L25284.5 535.427L25289.3 624.747L25307.2 623.783L25302.1 530.694L25282.3 491.715C25313.2 518.658 25348.1 527.753 25373.9 527.753C25428.5 527.753 25472.5 492.874 25461.8 450.397C25384.4 391.401 25182.5 295.951 25182.5 295.951Z" fill="black"/>
<path d="M25286 298.468C25318.1 282.4 25590.8 158.2 25505.6 73.5286C25418.9 -12.5303 25276.7 243.876 25259.2 277.052C25243.3 307.396 25253.9 314.536 25286 298.468Z" fill="black"/>
<path d="M25522.7 309.461C25513.4 225.517 25325.5 301.87 25301.8 312.166C25280 321.586 25282.6 330.033 25306.9 335.323C25331.2 340.613 25531.9 392.039 25522.7 309.461Z" fill="black"/>
<path d="M25329.2 123.166C25346.1 56.7922 25347.9 -3.97544 25294.7 0.203775C25200.7 7.60801 25223.5 191.102 25236.1 262.155C25249.5 237.72 25285.8 174.602 25329.2 123.166Z" fill="black"/>
</g>
<g clip-path="url(#clip37_1_302)">
<path d="M25838.5 295.951C25850.7 285.843 25858.5 270.562 25858.5 253.473C25858.5 223.04 25833.8 198.368 25803.4 198.368C25786.5 198.368 25771.5 205.92 25761.4 217.809C25753.6 196.804 25733.4 181.83 25709.7 181.83C25679.2 181.83 25654.6 206.511 25654.6 236.944C25654.6 267.377 25679.2 292.058 25709.7 292.058C25710 292.058 25710.3 292.039 25710.7 292.029L25613.9 472.178C25611.2 476.801 25612.7 482.767 25617.3 485.512L25620.7 487.488C25625.3 490.222 25631.3 488.688 25634 484.057L25749.7 306.63C25763.7 332.353 25780 355.756 25797.6 376.829L25755.7 445.532V509.623H25773.6V450.545L25810 390.919C25815.4 396.917 25821 402.708 25826.6 408.294L25809.3 458.108L25810.2 558.788L25828 558.63L25827.2 461.038L25840.8 421.845C25845.4 426.083 25850 430.173 25854.7 434.146L25872.5 526.547L25868.2 612.704L25886 613.6L25890.4 525.289L25876.2 451.434C25887.5 459.989 25898.7 467.777 25909.7 474.797L25940.5 535.427L25945.3 624.747L25963.1 623.783L25958.1 530.694L25938.3 491.715C25969.2 518.658 26004.1 527.753 26029.8 527.753C26084.5 527.753 26128.4 492.874 26117.8 450.397C26040.4 391.401 25838.5 295.951 25838.5 295.951Z" fill="black"/>
<path d="M25942 298.468C25974.1 282.4 26246.8 158.2 26161.6 73.5286C26074.9 -12.5303 25932.7 243.876 25915.2 277.052C25899.3 307.396 25909.9 314.536 25942 298.468Z" fill="black"/>
<path d="M26178.7 309.461C26169.4 225.517 25981.5 301.87 25957.7 312.166C25936 321.586 25938.6 330.033 25962.9 335.323C25987.1 340.613 26187.9 392.039 26178.7 309.461Z" fill="black"/>
<path d="M25985.1 123.166C26002.1 56.7922 26003.9 -3.97544 25950.7 0.203775C25856.6 7.60801 25879.5 191.102 25892.1 262.155C25905.5 237.72 25941.8 174.602 25985.1 123.166Z" fill="black"/>
</g>
<g clip-path="url(#clip38_1_302)">
<path d="M26494.5 295.951C26506.7 285.843 26514.5 270.562 26514.5 253.473C26514.5 223.04 26489.8 198.368 26459.3 198.368C26442.5 198.368 26427.5 205.92 26417.4 217.809C26409.6 196.804 26389.4 181.83 26365.7 181.83C26335.2 181.83 26310.6 206.511 26310.6 236.944C26310.6 267.377 26335.2 292.058 26365.7 292.058C26366 292.058 26366.3 292.039 26366.6 292.029L26269.9 472.178C26267.2 476.801 26268.7 482.767 26273.3 485.512L26276.7 487.488C26281.3 490.222 26287.2 488.688 26290 484.057L26405.7 306.63C26419.6 332.353 26436 355.756 26453.6 376.829L26411.7 445.532V509.623H26429.6V450.545L26465.9 390.919C26471.4 396.917 26476.9 402.708 26482.6 408.294L26465.3 458.108L26466.2 558.788L26484 558.63L26483.2 461.038L26496.8 421.845C26501.4 426.083 26506 430.173 26510.7 434.146L26528.5 526.547L26524.2 612.704L26542 613.6L26546.4 525.289L26532.2 451.434C26543.5 459.989 26554.7 467.777 26565.7 474.797L26596.5 535.427L26601.3 624.747L26619.1 623.783L26614.1 530.694L26594.3 491.715C26625.2 518.658 26660 527.753 26685.8 527.753C26740.5 527.753 26784.4 492.874 26773.8 450.397C26696.4 391.401 26494.5 295.951 26494.5 295.951Z" fill="black"/>
<path d="M26598 298.468C26630.1 282.4 26902.8 158.2 26817.6 73.5286C26730.9 -12.5303 26588.6 243.876 26571.2 277.052C26555.2 307.396 26565.8 314.536 26598 298.468Z" fill="black"/>
<path d="M26834.7 309.461C26825.4 225.517 26637.5 301.87 26613.7 312.166C26592 321.586 26594.6 330.033 26618.8 335.323C26643.1 340.613 26843.9 392.039 26834.7 309.461Z" fill="black"/>
<path d="M26641.1 123.166C26658.1 56.7922 26659.9 -3.97544 26606.7 0.203775C26512.6 7.60801 26535.4 191.102 26548.1 262.155C26561.4 237.72 26597.8 174.602 26641.1 123.166Z" fill="black"/>
</g>
<g clip-path="url(#clip39_1_302)">
<path d="M27150.4 295.951C27162.7 285.843 27170.4 270.562 27170.4 253.473C27170.4 223.04 27145.8 198.368 27115.3 198.368C27098.5 198.368 27083.4 205.92 27073.3 217.809C27065.6 196.804 27045.4 181.83 27021.6 181.83C26991.2 181.83 26966.5 206.511 26966.5 236.944C26966.5 267.377 26991.2 292.058 27021.6 292.058C27022 292.058 27022.3 292.039 27022.6 292.029L26925.9 472.178C26923.1 476.801 26924.7 482.767 26929.3 485.512L26932.6 487.488C26937.3 490.222 26943.2 488.688 26946 484.057L27061.7 306.63C27075.6 332.353 27092 355.756 27109.6 376.829L27067.7 445.532V509.623H27085.5V450.545L27121.9 390.919C27127.4 396.917 27132.9 402.708 27138.5 408.294L27121.3 458.108L27122.1 558.788L27140 558.63L27139.2 461.038L27152.7 421.845C27157.4 426.083 27162 430.173 27166.7 434.146L27184.5 526.547L27180.2 612.704L27198 613.6L27202.4 525.289L27188.2 451.434C27199.5 459.989 27210.7 467.777 27221.6 474.797L27252.5 535.427L27257.3 624.747L27275.1 623.783L27270.1 530.694L27250.3 491.715C27281.1 518.658 27316 527.753 27341.8 527.753C27396.4 527.753 27440.4 492.874 27429.8 450.397C27352.3 391.401 27150.4 295.951 27150.4 295.951Z" fill="black"/>
<path d="M27254 298.468C27286.1 282.4 27558.8 158.2 27473.5 73.5286C27386.9 -12.5303 27244.6 243.876 27227.2 277.052C27211.2 307.396 27221.8 314.536 27254 298.468Z" fill="black"/>
<path d="M27490.7 309.461C27481.4 225.517 27293.5 301.87 27269.7 312.166C27247.9 321.586 27250.6 330.033 27274.8 335.323C27299.1 340.613 27499.8 392.039 27490.7 309.461Z" fill="black"/>
<path d="M27297.1 123.166C27314.1 56.7922 27315.8 -3.97544 27262.7 0.203775C27168.6 7.60801 27191.4 191.102 27204.1 262.155C27217.4 237.72 27253.8 174.602 27297.1 123.166Z" fill="black"/>
</g>
<g clip-path="url(#clip40_1_302)">
<path d="M27806.4 295.951C27818.6 285.843 27826.4 270.562 27826.4 253.473C27826.4 223.04 27801.8 198.368 27771.3 198.368C27754.5 198.368 27739.4 205.92 27729.3 217.809C27721.6 196.804 27701.3 181.83 27677.6 181.83C27647.2 181.83 27622.5 206.511 27622.5 236.944C27622.5 267.377 27647.2 292.058 27677.6 292.058C27678 292.058 27678.3 292.039 27678.6 292.029L27581.8 472.178C27579.1 476.801 27580.6 482.767 27585.3 485.512L27588.6 487.488C27593.2 490.222 27599.2 488.688 27601.9 484.057L27717.6 306.63C27731.6 332.353 27747.9 355.756 27765.6 376.829L27723.7 445.532V509.623H27741.5V450.545L27777.9 390.919C27783.4 396.917 27788.9 402.708 27794.5 408.294L27777.3 458.108L27778.1 558.788L27796 558.63L27795.1 461.038L27808.7 421.845C27813.3 426.083 27818 430.173 27822.7 434.146L27840.5 526.547L27836.1 612.704L27854 613.6L27858.4 525.289L27844.2 451.434C27855.4 459.989 27866.7 467.777 27877.6 474.797L27908.5 535.427L27913.3 624.747L27931.1 623.783L27926.1 530.694L27906.3 491.715C27937.1 518.658 27972 527.753 27997.8 527.753C28052.4 527.753 28096.4 492.874 28085.8 450.397C28008.3 391.401 27806.4 295.951 27806.4 295.951Z" fill="black"/>
<path d="M27909.9 298.468C27942.1 282.4 28214.8 158.2 28129.5 73.5286C28042.9 -12.5303 27900.6 243.876 27883.2 277.052C27867.2 307.396 27877.8 314.536 27909.9 298.468Z" fill="black"/>
<path d="M28146.7 309.461C28137.3 225.517 27949.5 301.87 27925.7 312.166C27903.9 321.586 27906.5 330.033 27930.8 335.323C27955.1 340.613 28155.8 392.039 28146.7 309.461Z" fill="black"/>
<path d="M27953.1 123.166C27970.1 56.7922 27971.8 -3.97544 27918.7 0.203775C27824.6 7.60801 27847.4 191.102 27860.1 262.155C27873.4 237.72 27909.8 174.602 27953.1 123.166Z" fill="black"/>
</g>
<g clip-path="url(#clip41_1_302)">
<path d="M28462.4 295.951C28474.6 285.843 28482.4 270.562 28482.4 253.473C28482.4 223.04 28457.7 198.368 28427.3 198.368C28410.5 198.368 28395.4 205.92 28385.3 217.809C28377.5 196.804 28357.3 181.83 28333.6 181.83C28303.2 181.83 28278.5 206.511 28278.5 236.944C28278.5 267.377 28303.2 292.058 28333.6 292.058C28333.9 292.058 28334.3 292.039 28334.6 292.029L28237.8 472.178C28235.1 476.801 28236.6 482.767 28241.3 485.512L28244.6 487.488C28249.2 490.222 28255.2 488.688 28257.9 484.057L28373.6 306.63C28387.6 332.353 28403.9 355.756 28421.6 376.829L28379.7 445.532V509.623H28397.5V450.545L28433.9 390.919C28439.3 396.917 28444.9 402.708 28450.5 408.294L28433.3 458.108L28434.1 558.788L28452 558.63L28451.1 461.038L28464.7 421.845C28469.3 426.083 28474 430.173 28478.7 434.146L28496.4 526.547L28492.1 612.704L28510 613.6L28514.4 525.289L28500.2 451.434C28511.4 459.989 28522.6 467.777 28533.6 474.797L28564.4 535.427L28569.3 624.747L28587.1 623.783L28582.1 530.694L28562.3 491.715C28593.1 518.658 28628 527.753 28653.8 527.753C28708.4 527.753 28752.4 492.874 28741.8 450.397C28664.3 391.401 28462.4 295.951 28462.4 295.951Z" fill="black"/>
<path d="M28565.9 298.468C28598.1 282.4 28870.8 158.2 28785.5 73.5286C28698.9 -12.5303 28556.6 243.876 28539.2 277.052C28523.2 307.396 28533.8 314.536 28565.9 298.468Z" fill="black"/>
<path d="M28802.6 309.461C28793.3 225.517 28605.4 301.87 28581.7 312.166C28559.9 321.586 28562.5 330.033 28586.8 335.323C28611.1 340.613 28811.8 392.039 28802.6 309.461Z" fill="black"/>
<path d="M28609.1 123.166C28626 56.7922 28627.8 -3.97544 28574.7 0.203775C28480.6 7.60801 28503.4 191.102 28516.1 262.155C28529.4 237.72 28565.8 174.602 28609.1 123.166Z" fill="black"/>
</g>
<g clip-path="url(#clip42_1_302)">
<path d="M29118.4 295.951C29130.6 285.843 29138.4 270.562 29138.4 253.473C29138.4 223.04 29113.7 198.368 29083.3 198.368C29066.5 198.368 29051.4 205.92 29041.3 217.809C29033.5 196.804 29013.3 181.83 28989.6 181.83C28959.2 181.83 28934.5 206.511 28934.5 236.944C28934.5 267.377 28959.2 292.058 28989.6 292.058C28989.9 292.058 28990.3 292.039 28990.6 292.029L28893.8 472.178C28891.1 476.801 28892.6 482.767 28897.2 485.512L28900.6 487.488C28905.2 490.222 28911.2 488.688 28913.9 484.057L29029.6 306.63C29043.6 332.353 29059.9 355.756 29077.6 376.829L29035.6 445.532V509.623H29053.5V450.545L29089.9 390.919C29095.3 396.917 29100.9 402.708 29106.5 408.294L29089.2 458.108L29090.1 558.788L29107.9 558.63L29107.1 461.038L29120.7 421.845C29125.3 426.083 29130 430.173 29134.6 434.146L29152.4 526.547L29148.1 612.704L29165.9 613.6L29170.4 525.289L29156.1 451.434C29167.4 459.989 29178.6 467.777 29189.6 474.797L29220.4 535.427L29225.2 624.747L29243.1 623.783L29238 530.694L29218.2 491.715C29249.1 518.658 29284 527.753 29309.8 527.753C29364.4 527.753 29408.4 492.874 29397.7 450.397C29320.3 391.401 29118.4 295.951 29118.4 295.951Z" fill="black"/>
<path d="M29221.9 298.468C29254 282.4 29526.7 158.2 29441.5 73.5286C29354.8 -12.5303 29212.6 243.876 29195.1 277.052C29179.2 307.396 29189.8 314.536 29221.9 298.468Z" fill="black"/>
<path d="M29458.6 309.461C29449.3 225.517 29261.4 301.87 29237.7 312.166C29215.9 321.586 29218.5 330.033 29242.8 335.323C29267.1 340.613 29467.8 392.039 29458.6 309.461Z" fill="black"/>
<path d="M29265.1 123.166C29282 56.7922 29283.8 -3.97544 29230.7 0.203775C29136.6 7.60801 29159.4 191.102 29172 262.155C29185.4 237.72 29221.7 174.602 29265.1 123.166Z" fill="black"/>
</g>
<g clip-path="url(#clip43_1_302)">
<path d="M29774.4 295.951C29786.6 285.843 29794.4 270.562 29794.4 253.473C29794.4 223.04 29769.7 198.368 29739.3 198.368C29722.4 198.368 29707.4 205.92 29697.3 217.809C29689.5 196.804 29669.3 181.83 29645.6 181.83C29615.2 181.83 29590.5 206.511 29590.5 236.944C29590.5 267.377 29615.2 292.058 29645.6 292.058C29645.9 292.058 29646.2 292.039 29646.6 292.029L29549.8 472.178C29547.1 476.801 29548.6 482.767 29553.2 485.512L29556.6 487.488C29561.2 490.222 29567.2 488.688 29569.9 484.057L29685.6 306.63C29699.6 332.353 29715.9 355.756 29733.5 376.829L29691.6 445.532V509.623H29709.5V450.545L29745.9 390.919C29751.3 396.917 29756.9 402.708 29762.5 408.294L29745.2 458.108L29746.1 558.788L29763.9 558.63L29763.1 461.038L29776.7 421.845C29781.3 426.083 29786 430.173 29790.6 434.146L29808.4 526.547L29804.1 612.704L29821.9 613.6L29826.4 525.289L29812.1 451.434C29823.4 459.989 29834.6 467.777 29845.6 474.797L29876.4 535.427L29881.2 624.747L29899.1 623.783L29894 530.694L29874.2 491.715C29905.1 518.658 29940 527.753 29965.8 527.753C30020.4 527.753 30064.3 492.874 30053.7 450.397C29976.3 391.401 29774.4 295.951 29774.4 295.951Z" fill="black"/>
<path d="M29877.9 298.468C29910 282.4 30182.7 158.2 30097.5 73.5286C30010.8 -12.5303 29868.6 243.876 29851.1 277.052C29835.2 307.396 29845.8 314.536 29877.9 298.468Z" fill="black"/>
<path d="M30114.6 309.461C30105.3 225.517 29917.4 301.87 29893.6 312.166C29871.9 321.586 29874.5 330.033 29898.8 335.323C29923 340.613 30123.8 392.039 30114.6 309.461Z" fill="black"/>
<path d="M29921 123.166C29938 56.7922 29939.8 -3.97544 29886.6 0.203775C29792.5 7.60801 29815.4 191.102 29828 262.155C29841.4 237.72 29877.7 174.602 29921 123.166Z" fill="black"/>
</g>
<g clip-path="url(#clip44_1_302)">
<path d="M30430.4 295.951C30442.6 285.843 30450.4 270.562 30450.4 253.473C30450.4 223.04 30425.7 198.368 30395.3 198.368C30378.4 198.368 30363.4 205.92 30353.3 217.809C30345.5 196.804 30325.3 181.83 30301.6 181.83C30271.1 181.83 30246.5 206.511 30246.5 236.944C30246.5 267.377 30271.1 292.058 30301.6 292.058C30301.9 292.058 30302.2 292.039 30302.6 292.029L30205.8 472.178C30203.1 476.801 30204.6 482.767 30209.2 485.512L30212.6 487.488C30217.2 490.222 30223.1 488.688 30225.9 484.057L30341.6 306.63C30355.5 332.353 30371.9 355.756 30389.5 376.829L30347.6 445.532V509.623H30365.5V450.545L30401.8 390.919C30407.3 396.917 30412.9 402.708 30418.5 408.294L30401.2 458.108L30402.1 558.788L30419.9 558.63L30419.1 461.038L30432.7 421.845C30437.3 426.083 30441.9 430.173 30446.6 434.146L30464.4 526.547L30460.1 612.704L30477.9 613.6L30482.3 525.289L30468.1 451.434C30479.4 459.989 30490.6 467.777 30501.6 474.797L30532.4 535.427L30537.2 624.747L30555 623.783L30550 530.694L30530.2 491.715C30561.1 518.658 30595.9 527.753 30621.7 527.753C30676.4 527.753 30720.3 492.874 30709.7 450.397C30632.3 391.401 30430.4 295.951 30430.4 295.951Z" fill="black"/>
<path d="M30533.9 298.468C30566 282.4 30838.7 158.2 30753.5 73.5286C30666.8 -12.5303 30524.5 243.876 30507.1 277.052C30491.1 307.396 30501.7 314.536 30533.9 298.468Z" fill="black"/>
<path d="M30770.6 309.461C30761.3 225.517 30573.4 301.87 30549.6 312.166C30527.9 321.586 30530.5 330.033 30554.7 335.323C30579 340.613 30779.8 392.039 30770.6 309.461Z" fill="black"/>
<path d="M30577 123.166C30594 56.7922 30595.8 -3.97544 30542.6 0.203775C30448.5 7.60801 30471.4 191.102 30484 262.155C30497.3 237.72 30533.7 174.602 30577 123.166Z" fill="black"/>
</g>
<g clip-path="url(#clip45_1_302)">
<path d="M31086.4 295.951C31098.6 285.843 31106.4 270.562 31106.4 253.473C31106.4 223.04 31081.7 198.368 31051.2 198.368C31034.4 198.368 31019.4 205.92 31009.2 217.809C31001.5 196.804 30981.3 181.83 30957.6 181.83C30927.1 181.83 30902.4 206.511 30902.4 236.944C30902.4 267.377 30927.1 292.058 30957.6 292.058C30957.9 292.058 30958.2 292.039 30958.5 292.029L30861.8 472.178C30859 476.801 30860.6 482.767 30865.2 485.512L30868.5 487.488C30873.2 490.222 30879.1 488.688 30881.9 484.057L30997.6 306.63C31011.5 332.353 31027.9 355.756 31045.5 376.829L31003.6 445.532V509.623H31021.4V450.545L31057.8 390.919C31063.3 396.917 31068.8 402.708 31074.4 408.294L31057.2 458.108L31058 558.788L31075.9 558.63L31075.1 461.038L31088.6 421.845C31093.3 426.083 31097.9 430.173 31102.6 434.146L31120.4 526.547L31116.1 612.704L31133.9 613.6L31138.3 525.289L31124.1 451.434C31135.4 459.989 31146.6 467.777 31157.6 474.797L31188.4 535.427L31193.2 624.747L31211 623.783L31206 530.694L31186.2 491.715C31217 518.658 31251.9 527.753 31277.7 527.753C31332.4 527.753 31376.3 492.874 31365.7 450.397C31288.2 391.401 31086.4 295.951 31086.4 295.951Z" fill="black"/>
<path d="M31189.9 298.468C31222 282.4 31494.7 158.2 31409.5 73.5286C31322.8 -12.5303 31180.5 243.876 31163.1 277.052C31147.1 307.396 31157.7 314.536 31189.9 298.468Z" fill="black"/>
<path d="M31426.6 309.461C31417.3 225.517 31229.4 301.87 31205.6 312.166C31183.9 321.586 31186.5 330.033 31210.7 335.323C31235 340.613 31435.8 392.039 31426.6 309.461Z" fill="black"/>
<path d="M31233 123.166C31250 56.7922 31251.7 -3.97544 31198.6 0.203775C31104.5 7.60801 31127.3 191.102 31140 262.155C31153.3 237.72 31189.7 174.602 31233 123.166Z" fill="black"/>
</g>
<g clip-path="url(#clip46_1_302)">
<path d="M31742.3 295.951C31754.6 285.843 31762.3 270.562 31762.3 253.473C31762.3 223.04 31737.7 198.368 31707.2 198.368C31690.4 198.368 31675.3 205.92 31665.2 217.809C31657.5 196.804 31637.3 181.83 31613.5 181.83C31583.1 181.83 31558.4 206.511 31558.4 236.944C31558.4 267.377 31583.1 292.058 31613.5 292.058C31613.9 292.058 31614.2 292.039 31614.5 292.029L31517.8 472.178C31515 476.801 31516.6 482.767 31521.2 485.512L31524.5 487.488C31529.2 490.222 31535.1 488.688 31537.9 484.057L31653.5 306.63C31667.5 332.353 31683.8 355.756 31701.5 376.829L31659.6 445.532V509.623H31677.4V450.545L31713.8 390.919C31719.3 396.917 31724.8 402.708 31730.4 408.294L31713.2 458.108L31714 558.788L31731.9 558.63L31731.1 461.038L31744.6 421.845C31749.3 426.083 31753.9 430.173 31758.6 434.146L31776.4 526.547L31772 612.704L31789.9 613.6L31794.3 525.289L31780.1 451.434C31791.3 459.989 31802.6 467.777 31813.5 474.797L31844.4 535.427L31849.2 624.747L31867 623.783L31862 530.694L31842.2 491.715C31873 518.658 31907.9 527.753 31933.7 527.753C31988.3 527.753 32032.3 492.874 32021.7 450.397C31944.2 391.401 31742.3 295.951 31742.3 295.951Z" fill="black"/>
<path d="M31845.9 298.468C31878 282.4 32150.7 158.2 32065.4 73.5286C31978.8 -12.5303 31836.5 243.876 31819.1 277.052C31803.1 307.396 31813.7 314.536 31845.9 298.468Z" fill="black"/>
<path d="M32082.6 309.461C32073.3 225.517 31885.4 301.87 31861.6 312.166C31839.8 321.586 31842.5 330.033 31866.7 335.323C31891 340.613 32091.7 392.039 32082.6 309.461Z" fill="black"/>
<path d="M31889 123.166C31906 56.7922 31907.7 -3.97544 31854.6 0.203775C31760.5 7.60801 31783.3 191.102 31796 262.155C31809.3 237.72 31845.7 174.602 31889 123.166Z" fill="black"/>
</g>
<g clip-path="url(#clip47_1_302)">
<path d="M32398.3 295.951C32410.5 285.843 32418.3 270.562 32418.3 253.473C32418.3 223.04 32393.6 198.368 32363.2 198.368C32346.4 198.368 32331.3 205.92 32321.2 217.809C32313.4 196.804 32293.2 181.83 32269.5 181.83C32239.1 181.83 32214.4 206.511 32214.4 236.944C32214.4 267.377 32239.1 292.058 32269.5 292.058C32269.9 292.058 32270.2 292.039 32270.5 292.029L32173.7 472.178C32171 476.801 32172.5 482.767 32177.2 485.512L32180.5 487.488C32185.1 490.222 32191.1 488.688 32193.8 484.057L32309.5 306.63C32323.5 332.353 32339.8 355.756 32357.5 376.829L32315.6 445.532V509.623H32333.4V450.545L32369.8 390.919C32375.2 396.917 32380.8 402.708 32386.4 408.294L32369.2 458.108L32370 558.788L32387.9 558.63L32387 461.038L32400.6 421.845C32405.2 426.083 32409.9 430.173 32414.6 434.146L32432.3 526.547L32428 612.704L32445.9 613.6L32450.3 525.289L32436.1 451.434C32447.3 459.989 32458.6 467.777 32469.5 474.797L32500.3 535.427L32505.2 624.747L32523 623.783L32518 530.694L32498.2 491.715C32529 518.658 32563.9 527.753 32589.7 527.753C32644.3 527.753 32688.3 492.874 32677.7 450.397C32600.2 391.401 32398.3 295.951 32398.3 295.951Z" fill="black"/>
<path d="M32501.8 298.468C32534 282.4 32806.7 158.2 32721.4 73.5286C32634.8 -12.5303 32492.5 243.876 32475.1 277.052C32459.1 307.396 32469.7 314.536 32501.8 298.468Z" fill="black"/>
<path d="M32738.6 309.461C32729.2 225.517 32541.4 301.87 32517.6 312.166C32495.8 321.586 32498.4 330.033 32522.7 335.323C32547 340.613 32747.7 392.039 32738.6 309.461Z" fill="black"/>
<path d="M32545 123.166C32561.9 56.7922 32563.7 -3.97544 32510.6 0.203775C32416.5 7.60801 32439.3 191.102 32452 262.155C32465.3 237.72 32501.7 174.602 32545 123.166Z" fill="black"/>
</g>
<g clip-path="url(#clip48_1_302)">
<path d="M1567.04 295.951C1579.26 285.843 1587.04 270.562 1587.04 253.473C1587.04 223.04 1562.36 198.368 1531.93 198.368C1515.11 198.368 1500.04 205.92 1489.93 217.809C1482.16 196.804 1461.96 181.83 1438.24 181.83C1407.81 181.83 1383.14 206.511 1383.14 236.944C1383.14 267.377 1407.81 292.058 1438.24 292.058C1438.57 292.058 1438.9 292.039 1439.22 292.029L1342.46 472.178C1339.73 476.801 1341.26 482.767 1345.88 485.512L1349.23 487.488C1353.85 490.222 1359.82 488.688 1362.56 484.057L1478.25 306.63C1492.22 332.353 1508.55 355.756 1526.21 376.829L1484.29 445.532V509.623H1502.14V450.545L1538.52 390.919C1543.97 396.917 1549.52 402.708 1555.14 408.294L1537.88 458.108L1538.74 558.788L1556.58 558.63L1555.76 461.038L1569.33 421.845C1573.96 426.083 1578.61 430.173 1583.28 434.146L1601.07 526.547L1596.75 612.704L1614.59 613.6L1619.01 525.289L1604.78 451.434C1616.05 459.989 1627.27 467.777 1638.24 474.797L1669.06 535.427L1673.88 624.747L1691.71 623.783L1686.68 530.694L1666.88 491.715C1697.74 518.658 1732.62 527.753 1758.41 527.753C1813.04 527.753 1857.01 492.874 1846.39 450.397C1768.93 391.401 1567.04 295.951 1567.04 295.951Z" fill="black"/>
<path d="M1670.56 298.468C1702.69 282.4 1975.38 158.2 1890.14 73.5286C1803.49 -12.5303 1661.21 243.876 1643.78 277.052C1627.82 307.396 1638.42 314.536 1670.56 298.468Z" fill="black"/>
<path d="M1907.28 309.461C1897.95 225.517 1710.08 301.87 1686.3 312.166C1664.54 321.586 1667.15 330.033 1691.42 335.323C1715.7 340.613 1916.44 392.039 1907.28 309.461Z" fill="black"/>
<path d="M1713.7 123.166C1730.66 56.7922 1732.44 -3.97544 1679.3 0.203775C1585.21 7.60801 1608.03 191.102 1620.68 262.155C1634.02 237.72 1670.38 174.602 1713.7 123.166Z" fill="black"/>
</g>
<g clip-path="url(#clip49_1_302)">
<path d="M911.059 295.951C923.272 285.843 931.059 270.562 931.059 253.473C931.059 223.04 906.379 198.368 875.945 198.368C859.12 198.368 844.056 205.92 833.947 217.809C826.18 196.804 805.973 181.83 782.254 181.83C751.822 181.83 727.151 206.511 727.151 236.944C727.151 267.377 751.822 292.058 782.254 292.058C782.589 292.058 782.913 292.039 783.238 292.029L686.472 472.178C683.748 476.801 685.272 482.767 689.894 485.512L693.248 487.488C697.87 490.222 703.836 488.688 706.571 484.057L822.266 306.63C836.23 332.353 852.562 355.756 870.222 376.829L828.305 445.532V509.623H846.152V450.545L882.534 390.919C887.981 396.917 893.538 402.708 899.152 408.294L881.894 458.108L882.751 558.788L900.598 558.63L899.772 461.038L913.35 421.845C917.972 426.083 922.622 430.173 927.293 434.146L945.082 526.547L940.765 612.704L958.602 613.6L963.026 525.289L948.798 451.434C960.067 459.989 971.287 467.777 982.26 474.797L1013.08 535.427L1017.9 624.747L1035.72 623.783L1030.7 530.694L1010.89 491.715C1041.75 518.658 1076.64 527.753 1102.43 527.753C1157.05 527.753 1201.02 492.874 1190.4 450.397C1112.95 391.401 911.059 295.951 911.059 295.951Z" fill="black"/>
<path d="M1014.57 298.468C1046.71 282.4 1319.39 158.2 1234.15 73.5286C1147.5 -12.5303 1005.23 243.876 987.796 277.052C971.836 307.396 982.437 314.536 1014.57 298.468Z" fill="black"/>
<path d="M1251.29 309.461C1241.97 225.517 1054.09 301.87 1030.31 312.166C1008.55 321.586 1011.17 330.033 1035.44 335.323C1059.71 340.613 1260.46 392.039 1251.29 309.461Z" fill="black"/>
<path d="M1057.72 123.166C1074.68 56.7922 1076.45 -3.97544 1023.31 0.203775C929.22 7.60801 952.043 191.102 964.698 262.155C978.031 237.72 1014.39 174.602 1057.72 123.166Z" fill="black"/>
</g>
<defs>
<clipPath id="clip0_1_302">
<rect width="800" height="800" fill="white" transform="scale(0.780934)"/>
</clipPath>
<clipPath id="clip1_1_302">
<rect width="800" height="800" fill="white" transform="translate(1967.95) scale(0.780934)"/>
</clipPath>
<clipPath id="clip2_1_302">
<rect width="800" height="800" fill="white" transform="translate(2623.94) scale(0.780934)"/>
</clipPath>
<clipPath id="clip3_1_302">
<rect width="800" height="800" fill="white" transform="translate(3279.92) scale(0.780934)"/>
</clipPath>
<clipPath id="clip4_1_302">
<rect width="800" height="800" fill="white" transform="translate(3935.91) scale(0.780934)"/>
</clipPath>
<clipPath id="clip5_1_302">
<rect width="800" height="800" fill="white" transform="translate(4591.89) scale(0.780934)"/>
</clipPath>
<clipPath id="clip6_1_302">
<rect width="800" height="800" fill="white" transform="translate(5247.88) scale(0.780934)"/>
</clipPath>
<clipPath id="clip7_1_302">
<rect width="800" height="800" fill="white" transform="translate(5903.86) scale(0.780934)"/>
</clipPath>
<clipPath id="clip8_1_302">
<rect width="800" height="800" fill="white" transform="translate(6559.85) scale(0.780934)"/>
</clipPath>
<clipPath id="clip9_1_302">
<rect width="800" height="800" fill="white" transform="translate(7215.83) scale(0.780934)"/>
</clipPath>
<clipPath id="clip10_1_302">
<rect width="800" height="800" fill="white" transform="translate(7871.82) scale(0.780934)"/>
</clipPath>
<clipPath id="clip11_1_302">
<rect width="800" height="800" fill="white" transform="translate(8527.8) scale(0.780934)"/>
</clipPath>
<clipPath id="clip12_1_302">
<rect width="800" height="800" fill="white" transform="translate(9183.79) scale(0.780934)"/>
</clipPath>
<clipPath id="clip13_1_302">
<rect width="800" height="800" fill="white" transform="translate(9839.77) scale(0.780934)"/>
</clipPath>
<clipPath id="clip14_1_302">
<rect width="800" height="800" fill="white" transform="translate(10495.8) scale(0.780934)"/>
</clipPath>
<clipPath id="clip15_1_302">
<rect width="800" height="800" fill="white" transform="translate(11151.7) scale(0.780934)"/>
</clipPath>
<clipPath id="clip16_1_302">
<rect width="800" height="800" fill="white" transform="translate(11807.7) scale(0.780934)"/>
</clipPath>
<clipPath id="clip17_1_302">
<rect width="800" height="800" fill="white" transform="translate(12463.7) scale(0.780934)"/>
</clipPath>
<clipPath id="clip18_1_302">
<rect width="800" height="800" fill="white" transform="translate(13119.7) scale(0.780934)"/>
</clipPath>
<clipPath id="clip19_1_302">
<rect width="800" height="800" fill="white" transform="translate(13775.7) scale(0.780934)"/>
</clipPath>
<clipPath id="clip20_1_302">
<rect width="800" height="800" fill="white" transform="translate(14431.7) scale(0.780934)"/>
</clipPath>
<clipPath id="clip21_1_302">
<rect width="800" height="800" fill="white" transform="translate(15087.6) scale(0.780934)"/>
</clipPath>
<clipPath id="clip22_1_302">
<rect width="800" height="800" fill="white" transform="translate(15743.6) scale(0.780934)"/>
</clipPath>
<clipPath id="clip23_1_302">
<rect width="800" height="800" fill="white" transform="translate(16399.6) scale(0.780934)"/>
</clipPath>
<clipPath id="clip24_1_302">
<rect width="800" height="800" fill="white" transform="translate(17055.6) scale(0.780934)"/>
</clipPath>
<clipPath id="clip25_1_302">
<rect width="800" height="800" fill="white" transform="translate(17711.6) scale(0.780934)"/>
</clipPath>
<clipPath id="clip26_1_302">
<rect width="800" height="800" fill="white" transform="translate(18367.6) scale(0.780934)"/>
</clipPath>
<clipPath id="clip27_1_302">
<rect width="800" height="800" fill="white" transform="translate(19023.6) scale(0.780934)"/>
</clipPath>
<clipPath id="clip28_1_302">
<rect width="800" height="800" fill="white" transform="translate(19679.5) scale(0.780934)"/>
</clipPath>
<clipPath id="clip29_1_302">
<rect width="800" height="800" fill="white" transform="translate(20335.5) scale(0.780934)"/>
</clipPath>
<clipPath id="clip30_1_302">
<rect width="800" height="800" fill="white" transform="translate(20991.5) scale(0.780934)"/>
</clipPath>
<clipPath id="clip31_1_302">
<rect width="800" height="800" fill="white" transform="translate(21647.5) scale(0.780934)"/>
</clipPath>
<clipPath id="clip32_1_302">
<rect width="800" height="800" fill="white" transform="translate(22303.5) scale(0.780934)"/>
</clipPath>
<clipPath id="clip33_1_302">
<rect width="800" height="800" fill="white" transform="translate(22959.5) scale(0.780934)"/>
</clipPath>
<clipPath id="clip34_1_302">
<rect width="800" height="800" fill="white" transform="translate(23615.5) scale(0.780934)"/>
</clipPath>
<clipPath id="clip35_1_302">
<rect width="800" height="800" fill="white" transform="translate(24271.4) scale(0.780934)"/>
</clipPath>
<clipPath id="clip36_1_302">
<rect width="800" height="800" fill="white" transform="translate(24927.4) scale(0.780934)"/>
</clipPath>
<clipPath id="clip37_1_302">
<rect width="800" height="800" fill="white" transform="translate(25583.4) scale(0.780934)"/>
</clipPath>
<clipPath id="clip38_1_302">
<rect width="800" height="800" fill="white" transform="translate(26239.4) scale(0.780934)"/>
</clipPath>
<clipPath id="clip39_1_302">
<rect width="800" height="800" fill="white" transform="translate(26895.4) scale(0.780934)"/>
</clipPath>
<clipPath id="clip40_1_302">
<rect width="800" height="800" fill="white" transform="translate(27551.4) scale(0.780934)"/>
</clipPath>
<clipPath id="clip41_1_302">
<rect width="800" height="800" fill="white" transform="translate(28207.3) scale(0.780934)"/>
</clipPath>
<clipPath id="clip42_1_302">
<rect width="800" height="800" fill="white" transform="translate(28863.3) scale(0.780934)"/>
</clipPath>
<clipPath id="clip43_1_302">
<rect width="800" height="800" fill="white" transform="translate(29519.3) scale(0.780934)"/>
</clipPath>
<clipPath id="clip44_1_302">
<rect width="800" height="800" fill="white" transform="translate(30175.3) scale(0.780934)"/>
</clipPath>
<clipPath id="clip45_1_302">
<rect width="800" height="800" fill="white" transform="translate(30831.3) scale(0.780934)"/>
</clipPath>
<clipPath id="clip46_1_302">
<rect width="800" height="800" fill="white" transform="translate(31487.3) scale(0.780934)"/>
</clipPath>
<clipPath id="clip47_1_302">
<rect width="800" height="800" fill="white" transform="translate(32143.3) scale(0.780934)"/>
</clipPath>
<clipPath id="clip48_1_302">
<rect width="800" height="800" fill="white" transform="translate(1311.97) scale(0.780934)"/>
</clipPath>
<clipPath id="clip49_1_302">
<rect width="800" height="800" fill="white" transform="translate(655.985) scale(0.780934)"/>
</clipPath>
</defs>
</svg>
