<?xml version="1.0" standalone="no"?>
<!DOCTYPE svg PUBLIC "-//W3C//DTD SVG 20010904//EN"
 "http://www.w3.org/TR/2001/REC-SVG-20010904/DTD/svg10.dtd">
<svg version="1.0" xmlns="http://www.w3.org/2000/svg"
 width="3000.000000pt" height="30.000000pt" viewBox="0 0 3000.000000 30.000000"
 preserveAspectRatio="xMidYMid meet">

<g transform="translate(0.000000,30.000000) scale(0.100000,-0.100000)"
fill="#000000" stroke="none">
<path d="M124 275 c30 -28 33 -55 8 -78 -23 -21 -56 -22 -73 -1 -12 14 -14 13
-21 -6 -16 -43 4 -50 143 -50 138 0 151 5 141 55 -3 20 -7 22 -22 13 -34 -22
-68 30 -39 59 15 15 3 33 -22 33 -12 0 -19 -7 -19 -19 0 -11 -5 -23 -10 -26
-15 -9 -42 15 -36 32 4 9 -5 13 -36 13 l-41 0 27 -25z m117 -71 c9 -11 10 -20
2 -32 -24 -39 -82 -15 -68 28 8 24 47 27 66 4z"/>
<path d="M484 275 c30 -28 33 -55 8 -78 -23 -21 -56 -22 -72 -2 -18 22 -34 3
-26 -29 l6 -26 140 0 c130 0 139 1 145 20 3 11 4 29 0 40 -5 16 -9 18 -25 8
-34 -22 -68 30 -39 59 15 15 3 33 -22 33 -12 0 -19 -7 -19 -19 0 -11 -5 -23
-10 -26 -15 -9 -42 15 -36 32 4 9 -5 13 -36 13 l-41 0 27 -25z m117 -71 c9
-11 10 -20 2 -32 -24 -39 -82 -15 -68 28 8 24 47 27 66 4z"/>
<path d="M854 275 c30 -28 33 -55 8 -78 -23 -21 -56 -22 -73 -1 -12 14 -14 13
-21 -6 -16 -43 4 -50 143 -50 138 0 151 5 141 55 -3 20 -7 22 -22 13 -34 -22
-68 30 -39 59 15 15 3 33 -22 33 -12 0 -19 -7 -19 -19 0 -11 -5 -23 -10 -26
-15 -9 -42 15 -36 32 4 9 -5 13 -36 13 l-41 0 27 -25z m117 -71 c9 -11 10 -20
2 -32 -24 -39 -82 -15 -68 28 8 24 47 27 66 4z"/>
<path d="M1230 280 c25 -25 26 -52 2 -73 -23 -21 -56 -22 -73 -1 -12 14 -14
13 -21 -6 -16 -43 4 -50 143 -50 138 0 151 5 141 55 -3 20 -7 22 -22 13 -14
-9 -22 -9 -34 1 -18 15 -21 47 -6 56 18 11 10 25 -15 25 -15 0 -25 -6 -25 -14
0 -26 -23 -30 -41 -8 -9 12 -29 22 -43 22 l-26 0 20 -20z m111 -66 c9 -11 10
-20 2 -32 -24 -39 -82 -15 -68 28 8 24 47 27 66 4z"/>
<path d="M1590 280 c25 -25 26 -52 2 -73 -23 -21 -56 -22 -72 -2 -18 22 -34 3
-26 -29 l6 -26 140 0 c130 0 139 1 145 20 3 11 4 29 0 40 -5 16 -9 18 -25 8
-14 -9 -22 -9 -34 1 -18 15 -21 47 -6 56 18 11 10 25 -15 25 -15 0 -25 -6 -25
-14 0 -26 -23 -30 -41 -8 -9 12 -29 22 -43 22 l-26 0 20 -20z m111 -66 c9 -11
10 -20 2 -32 -24 -39 -82 -15 -68 28 8 24 47 27 66 4z"/>
<path d="M1960 280 c25 -25 26 -52 2 -73 -23 -21 -56 -22 -73 -1 -12 14 -14
13 -21 -6 -16 -43 4 -50 143 -50 138 0 151 5 141 55 -3 20 -7 22 -22 13 -14
-9 -22 -9 -34 1 -18 15 -21 47 -6 56 18 11 10 25 -15 25 -15 0 -25 -6 -25 -14
0 -26 -23 -30 -41 -8 -9 12 -29 22 -43 22 l-26 0 20 -20z m111 -66 c9 -11 10
-20 2 -32 -24 -39 -82 -15 -68 28 8 24 47 27 66 4z"/>
<path d="M2334 275 c30 -28 33 -55 8 -78 -23 -21 -56 -22 -73 -1 -12 14 -14
13 -21 -6 -16 -43 4 -50 143 -50 138 0 151 5 141 55 -3 20 -7 22 -22 13 -34
-22 -68 30 -39 59 15 15 3 33 -22 33 -12 0 -19 -7 -19 -19 0 -11 -5 -23 -10
-26 -15 -9 -42 15 -36 32 4 9 -5 13 -36 13 l-41 0 27 -25z m117 -71 c9 -11 10
-20 2 -32 -24 -39 -82 -15 -68 28 8 24 47 27 66 4z"/>
<path d="M2694 275 c30 -28 33 -55 8 -78 -23 -21 -56 -22 -72 -2 -18 22 -34 3
-26 -29 l6 -26 140 0 c130 0 139 1 145 20 3 11 4 29 0 40 -5 16 -9 18 -25 8
-34 -22 -68 30 -39 59 15 15 3 33 -22 33 -12 0 -19 -7 -19 -19 0 -11 -5 -23
-10 -26 -15 -9 -42 15 -36 32 4 9 -5 13 -36 13 l-41 0 27 -25z m117 -71 c9
-11 10 -20 2 -32 -24 -39 -82 -15 -68 28 8 24 47 27 66 4z"/>
<path d="M3064 275 c30 -28 33 -55 8 -78 -23 -21 -56 -22 -73 -1 -12 14 -14
13 -21 -6 -16 -43 4 -50 143 -50 138 0 151 5 141 55 -3 20 -7 22 -22 13 -34
-22 -68 30 -39 59 15 15 3 33 -22 33 -12 0 -19 -7 -19 -19 0 -11 -5 -23 -10
-26 -15 -9 -42 15 -36 32 4 9 -5 13 -36 13 l-41 0 27 -25z m117 -71 c9 -11 10
-20 2 -32 -24 -39 -82 -15 -68 28 8 24 47 27 66 4z"/>
<path d="M3440 280 c25 -25 26 -52 2 -73 -23 -21 -56 -22 -73 -1 -12 14 -14
13 -21 -6 -16 -43 4 -50 143 -50 138 0 151 5 141 55 -3 20 -7 22 -22 13 -14
-9 -22 -9 -34 1 -18 15 -21 47 -6 56 18 11 10 25 -15 25 -15 0 -25 -6 -25 -14
0 -26 -23 -30 -41 -8 -9 12 -29 22 -43 22 l-26 0 20 -20z m111 -66 c9 -11 10
-20 2 -32 -24 -39 -82 -15 -68 28 8 24 47 27 66 4z"/>
<path d="M3800 280 c25 -25 26 -52 2 -73 -23 -21 -56 -22 -72 -2 -18 22 -34 3
-26 -29 l6 -26 140 0 c130 0 139 1 145 20 3 11 4 29 0 40 -5 16 -9 18 -25 8
-14 -9 -22 -9 -34 1 -18 15 -21 47 -6 56 18 11 10 25 -15 25 -15 0 -25 -6 -25
-14 0 -26 -23 -30 -41 -8 -9 12 -29 22 -43 22 l-26 0 20 -20z m111 -66 c9 -11
10 -20 2 -32 -24 -39 -82 -15 -68 28 8 24 47 27 66 4z"/>
<path d="M4170 280 c25 -25 26 -52 2 -73 -23 -21 -56 -22 -73 -1 -12 14 -14
13 -21 -6 -16 -43 4 -50 143 -50 138 0 151 5 141 55 -3 20 -7 22 -22 13 -14
-9 -22 -9 -34 1 -18 15 -21 47 -6 56 18 11 10 25 -15 25 -15 0 -25 -6 -25 -14
0 -26 -23 -30 -41 -8 -9 12 -29 22 -43 22 l-26 0 20 -20z m111 -66 c9 -11 10
-20 2 -32 -24 -39 -82 -15 -68 28 8 24 47 27 66 4z"/>
<path d="M4560 280 c25 -25 26 -52 2 -73 -23 -21 -56 -22 -73 -1 -12 14 -14
13 -21 -6 -16 -43 4 -50 143 -50 138 0 151 5 141 55 -3 20 -7 22 -22 13 -14
-9 -22 -9 -34 1 -18 15 -21 47 -6 56 18 11 10 25 -15 25 -15 0 -25 -6 -25 -14
0 -26 -23 -30 -41 -8 -9 12 -29 22 -43 22 l-26 0 20 -20z m111 -66 c9 -11 10
-20 2 -32 -24 -39 -82 -15 -68 28 8 24 47 27 66 4z"/>
<path d="M4920 280 c25 -25 26 -52 2 -73 -23 -21 -56 -22 -72 -2 -18 22 -34 3
-26 -29 l6 -26 140 0 c130 0 139 1 145 20 3 11 4 29 0 40 -5 16 -9 18 -25 8
-14 -9 -22 -9 -34 1 -18 15 -21 47 -6 56 18 11 10 25 -15 25 -15 0 -25 -6 -25
-14 0 -26 -23 -30 -41 -8 -9 12 -29 22 -43 22 l-26 0 20 -20z m111 -66 c9 -11
10 -20 2 -32 -24 -39 -82 -15 -68 28 8 24 47 27 66 4z"/>
<path d="M5290 280 c25 -25 26 -52 2 -73 -23 -21 -56 -22 -73 -1 -12 14 -14
13 -21 -6 -16 -43 4 -50 143 -50 138 0 151 5 141 55 -3 20 -7 22 -22 13 -14
-9 -22 -9 -34 1 -18 15 -21 47 -6 56 18 11 10 25 -15 25 -15 0 -25 -6 -25 -14
0 -26 -23 -30 -41 -8 -9 12 -29 22 -43 22 l-26 0 20 -20z m111 -66 c9 -11 10
-20 2 -32 -24 -39 -82 -15 -68 28 8 24 47 27 66 4z"/>
<path d="M5673 271 c9 -25 8 -33 -8 -50 -22 -25 -57 -27 -76 -5 -12 14 -14 13
-21 -6 -16 -43 4 -50 143 -50 138 0 151 5 141 55 -3 20 -7 22 -22 13 -35 -22
-68 30 -38 60 9 9 7 12 -11 12 -13 0 -30 -8 -36 -17 -13 -17 -14 -17 -32 0
-11 9 -27 17 -35 17 -14 0 -15 -5 -5 -29z m98 -47 c9 -11 10 -20 2 -32 -24
-39 -82 -15 -68 28 8 24 47 27 66 4z"/>
<path d="M6033 271 c9 -25 8 -33 -8 -50 -22 -25 -57 -27 -75 -6 -18 22 -34 3
-26 -29 l6 -26 140 0 c130 0 139 1 145 20 3 11 4 29 0 40 -5 16 -9 18 -25 8
-35 -22 -68 30 -38 60 9 9 7 12 -11 12 -13 0 -30 -8 -36 -17 -13 -17 -14 -17
-32 0 -11 9 -27 17 -35 17 -14 0 -15 -5 -5 -29z m98 -47 c9 -11 10 -20 2 -32
-24 -39 -82 -15 -68 28 8 24 47 27 66 4z"/>
<path d="M6403 271 c9 -25 8 -33 -8 -50 -22 -25 -57 -27 -76 -5 -12 14 -14 13
-21 -6 -16 -43 4 -50 143 -50 138 0 151 5 141 55 -3 20 -7 22 -22 13 -35 -22
-68 30 -38 60 9 9 7 12 -11 12 -13 0 -30 -8 -36 -17 -13 -17 -14 -17 -32 0
-11 9 -27 17 -35 17 -14 0 -15 -5 -5 -29z m98 -47 c9 -11 10 -20 2 -32 -24
-39 -82 -15 -68 28 8 24 47 27 66 4z"/>
<path d="M6770 280 c25 -25 26 -52 2 -73 -23 -21 -56 -22 -73 -1 -12 14 -14
13 -21 -6 -16 -43 4 -50 143 -50 138 0 151 5 141 55 -3 20 -7 22 -22 13 -14
-9 -22 -9 -34 1 -18 15 -21 47 -6 56 18 11 10 25 -15 25 -15 0 -25 -6 -25 -14
0 -26 -23 -30 -41 -8 -9 12 -29 22 -43 22 l-26 0 20 -20z m111 -66 c9 -11 10
-20 2 -32 -24 -39 -82 -15 -68 28 8 24 47 27 66 4z"/>
<path d="M7130 280 c25 -25 26 -52 2 -73 -23 -21 -56 -22 -72 -2 -18 22 -34 3
-26 -29 l6 -26 140 0 c130 0 139 1 145 20 3 11 4 29 0 40 -5 16 -9 18 -25 8
-14 -9 -22 -9 -34 1 -18 15 -21 47 -6 56 18 11 10 25 -15 25 -15 0 -25 -6 -25
-14 0 -26 -23 -30 -41 -8 -9 12 -29 22 -43 22 l-26 0 20 -20z m111 -66 c9 -11
10 -20 2 -32 -24 -39 -82 -15 -68 28 8 24 47 27 66 4z"/>
<path d="M7500 280 c25 -25 26 -52 2 -73 -23 -21 -56 -22 -73 -1 -12 14 -14
13 -21 -6 -16 -43 4 -50 143 -50 138 0 151 5 141 55 -3 20 -7 22 -22 13 -14
-9 -22 -9 -34 1 -18 15 -21 47 -6 56 18 11 10 25 -15 25 -15 0 -25 -6 -25 -14
0 -26 -23 -30 -41 -8 -9 12 -29 22 -43 22 l-26 0 20 -20z m111 -66 c9 -11 10
-20 2 -32 -24 -39 -82 -15 -68 28 8 24 47 27 66 4z"/>
<path d="M7883 271 c9 -25 8 -33 -8 -50 -22 -25 -57 -27 -76 -5 -12 14 -14 13
-21 -6 -16 -43 4 -50 143 -50 138 0 151 5 141 55 -3 20 -7 22 -22 13 -35 -22
-68 30 -38 60 9 9 7 12 -11 12 -13 0 -30 -8 -36 -17 -13 -17 -14 -17 -32 0
-11 9 -27 17 -35 17 -14 0 -15 -5 -5 -29z m98 -47 c9 -11 10 -20 2 -32 -24
-39 -82 -15 -68 28 8 24 47 27 66 4z"/>
<path d="M8243 271 c9 -25 8 -33 -8 -50 -22 -25 -57 -27 -75 -6 -18 22 -34 3
-26 -29 l6 -26 140 0 c130 0 139 1 145 20 3 11 4 29 0 40 -5 16 -9 18 -25 8
-35 -22 -68 30 -38 60 9 9 7 12 -11 12 -13 0 -30 -8 -36 -17 -13 -17 -14 -17
-32 0 -11 9 -27 17 -35 17 -14 0 -15 -5 -5 -29z m98 -47 c9 -11 10 -20 2 -32
-24 -39 -82 -15 -68 28 8 24 47 27 66 4z"/>
<path d="M8613 271 c9 -25 8 -33 -8 -50 -22 -25 -57 -27 -76 -5 -12 14 -14 13
-21 -6 -16 -43 4 -50 143 -50 138 0 151 5 141 55 -3 20 -7 22 -22 13 -35 -22
-68 30 -38 60 9 9 7 12 -11 12 -13 0 -30 -8 -36 -17 -13 -17 -14 -17 -32 0
-11 9 -27 17 -35 17 -14 0 -15 -5 -5 -29z m98 -47 c9 -11 10 -20 2 -32 -24
-39 -82 -15 -68 28 8 24 47 27 66 4z"/>
<path d="M9004 275 c30 -28 33 -55 8 -78 -23 -21 -56 -22 -73 -1 -12 14 -14
13 -21 -6 -16 -43 4 -50 143 -50 138 0 151 5 141 55 -3 20 -7 22 -22 13 -34
-22 -68 30 -39 59 15 15 3 33 -22 33 -12 0 -19 -7 -19 -19 0 -11 -5 -23 -10
-26 -15 -9 -42 15 -36 32 4 9 -5 13 -36 13 l-41 0 27 -25z m117 -71 c9 -11 10
-20 2 -32 -24 -39 -82 -15 -68 28 8 24 47 27 66 4z"/>
<path d="M9364 275 c30 -28 33 -55 8 -78 -23 -21 -56 -22 -72 -2 -18 22 -34 3
-26 -29 l6 -26 140 0 c130 0 139 1 145 20 3 11 4 29 0 40 -5 16 -9 18 -25 8
-34 -22 -68 30 -39 59 15 15 3 33 -22 33 -12 0 -19 -7 -19 -19 0 -11 -5 -23
-10 -26 -15 -9 -42 15 -36 32 4 9 -5 13 -36 13 l-41 0 27 -25z m117 -71 c9
-11 10 -20 2 -32 -24 -39 -82 -15 -68 28 8 24 47 27 66 4z"/>
<path d="M9734 275 c30 -28 33 -55 8 -78 -23 -21 -56 -22 -73 -1 -12 14 -14
13 -21 -6 -16 -43 4 -50 143 -50 138 0 151 5 141 55 -3 20 -7 22 -22 13 -34
-22 -68 30 -39 59 15 15 3 33 -22 33 -12 0 -19 -7 -19 -19 0 -11 -5 -23 -10
-26 -15 -9 -42 15 -36 32 4 9 -5 13 -36 13 l-41 0 27 -25z m117 -71 c9 -11 10
-20 2 -32 -24 -39 -82 -15 -68 28 8 24 47 27 66 4z"/>
<path d="M10110 280 c25 -25 26 -52 2 -73 -23 -21 -56 -22 -73 -1 -12 14 -14
13 -21 -6 -16 -43 4 -50 143 -50 138 0 151 5 141 55 -3 20 -7 22 -22 13 -14
-9 -22 -9 -34 1 -18 15 -21 47 -6 56 18 11 10 25 -15 25 -15 0 -25 -6 -25 -14
0 -26 -23 -30 -41 -8 -9 12 -29 22 -43 22 l-26 0 20 -20z m111 -66 c9 -11 10
-20 2 -32 -24 -39 -82 -15 -68 28 8 24 47 27 66 4z"/>
<path d="M10470 280 c25 -25 26 -52 2 -73 -23 -21 -56 -22 -72 -2 -18 22 -34
3 -26 -29 l6 -26 140 0 c130 0 139 1 145 20 3 11 4 29 0 40 -5 16 -9 18 -25 8
-14 -9 -22 -9 -34 1 -18 15 -21 47 -6 56 18 11 10 25 -15 25 -15 0 -25 -6 -25
-14 0 -26 -23 -30 -41 -8 -9 12 -29 22 -43 22 l-26 0 20 -20z m111 -66 c9 -11
10 -20 2 -32 -24 -39 -82 -15 -68 28 8 24 47 27 66 4z"/>
<path d="M10840 280 c25 -25 26 -52 2 -73 -23 -21 -56 -22 -73 -1 -12 14 -14
13 -21 -6 -16 -43 4 -50 143 -50 138 0 151 5 141 55 -3 20 -7 22 -22 13 -14
-9 -22 -9 -34 1 -18 15 -21 47 -6 56 18 11 10 25 -15 25 -15 0 -25 -6 -25 -14
0 -26 -23 -30 -41 -8 -9 12 -29 22 -43 22 l-26 0 20 -20z m111 -66 c9 -11 10
-20 2 -32 -24 -39 -82 -15 -68 28 8 24 47 27 66 4z"/>
<path d="M11214 275 c30 -28 33 -55 8 -78 -23 -21 -56 -22 -73 -1 -12 14 -14
13 -21 -6 -16 -43 4 -50 143 -50 138 0 151 5 141 55 -3 20 -7 22 -22 13 -34
-22 -68 30 -39 59 15 15 3 33 -22 33 -12 0 -19 -7 -19 -19 0 -11 -5 -23 -10
-26 -15 -9 -42 15 -36 32 4 9 -5 13 -36 13 l-41 0 27 -25z m117 -71 c9 -11 10
-20 2 -32 -24 -39 -82 -15 -68 28 8 24 47 27 66 4z"/>
<path d="M11574 275 c30 -28 33 -55 8 -78 -23 -21 -56 -22 -72 -2 -18 22 -34
3 -26 -29 l6 -26 140 0 c130 0 139 1 145 20 3 11 4 29 0 40 -5 16 -9 18 -25 8
-34 -22 -68 30 -39 59 15 15 3 33 -22 33 -12 0 -19 -7 -19 -19 0 -11 -5 -23
-10 -26 -15 -9 -42 15 -36 32 4 9 -5 13 -36 13 l-41 0 27 -25z m117 -71 c9
-11 10 -20 2 -32 -24 -39 -82 -15 -68 28 8 24 47 27 66 4z"/>
<path d="M11944 275 c30 -28 33 -55 8 -78 -23 -21 -56 -22 -73 -1 -12 14 -14
13 -21 -6 -16 -43 4 -50 143 -50 138 0 151 5 141 55 -3 20 -7 22 -22 13 -34
-22 -68 30 -39 59 15 15 3 33 -22 33 -12 0 -19 -7 -19 -19 0 -11 -5 -23 -10
-26 -15 -9 -42 15 -36 32 4 9 -5 13 -36 13 l-41 0 27 -25z m117 -71 c9 -11 10
-20 2 -32 -24 -39 -82 -15 -68 28 8 24 47 27 66 4z"/>
<path d="M12320 280 c25 -25 26 -52 2 -73 -23 -21 -56 -22 -73 -1 -12 14 -14
13 -21 -6 -16 -43 4 -50 143 -50 138 0 151 5 141 55 -3 20 -7 22 -22 13 -14
-9 -22 -9 -34 1 -18 15 -21 47 -6 56 18 11 10 25 -15 25 -15 0 -25 -6 -25 -14
0 -26 -23 -30 -41 -8 -9 12 -29 22 -43 22 l-26 0 20 -20z m111 -66 c9 -11 10
-20 2 -32 -24 -39 -82 -15 -68 28 8 24 47 27 66 4z"/>
<path d="M12680 280 c25 -25 26 -52 2 -73 -23 -21 -56 -22 -72 -2 -18 22 -34
3 -26 -29 l6 -26 140 0 c130 0 139 1 145 20 3 11 4 29 0 40 -5 16 -9 18 -25 8
-14 -9 -22 -9 -34 1 -18 15 -21 47 -6 56 18 11 10 25 -15 25 -15 0 -25 -6 -25
-14 0 -26 -23 -30 -41 -8 -9 12 -29 22 -43 22 l-26 0 20 -20z m111 -66 c9 -11
10 -20 2 -32 -24 -39 -82 -15 -68 28 8 24 47 27 66 4z"/>
<path d="M13050 280 c25 -25 26 -52 2 -73 -23 -21 -56 -22 -73 -1 -12 14 -14
13 -21 -6 -16 -43 4 -50 143 -50 138 0 151 5 141 55 -3 20 -7 22 -22 13 -14
-9 -22 -9 -34 1 -18 15 -21 47 -6 56 18 11 10 25 -15 25 -15 0 -25 -6 -25 -14
0 -26 -23 -30 -41 -8 -9 12 -29 22 -43 22 l-26 0 20 -20z m111 -66 c9 -11 10
-20 2 -32 -24 -39 -82 -15 -68 28 8 24 47 27 66 4z"/>
<path d="M13440 280 c25 -25 26 -52 2 -73 -23 -21 -56 -22 -73 -1 -12 14 -14
13 -21 -6 -16 -43 4 -50 143 -50 138 0 151 5 141 55 -3 20 -7 22 -22 13 -14
-9 -22 -9 -34 1 -18 15 -21 47 -6 56 18 11 10 25 -15 25 -15 0 -25 -6 -25 -14
0 -26 -23 -30 -41 -8 -9 12 -29 22 -43 22 l-26 0 20 -20z m111 -66 c9 -11 10
-20 2 -32 -24 -39 -82 -15 -68 28 8 24 47 27 66 4z"/>
<path d="M13800 280 c25 -25 26 -52 2 -73 -23 -21 -56 -22 -72 -2 -18 22 -34
3 -26 -29 l6 -26 140 0 c130 0 139 1 145 20 3 11 4 29 0 40 -5 16 -9 18 -25 8
-14 -9 -22 -9 -34 1 -18 15 -21 47 -6 56 18 11 10 25 -15 25 -15 0 -25 -6 -25
-14 0 -26 -23 -30 -41 -8 -9 12 -29 22 -43 22 l-26 0 20 -20z m111 -66 c9 -11
10 -20 2 -32 -24 -39 -82 -15 -68 28 8 24 47 27 66 4z"/>
<path d="M14170 280 c25 -25 26 -52 2 -73 -23 -21 -56 -22 -73 -1 -12 14 -14
13 -21 -6 -16 -43 4 -50 143 -50 138 0 151 5 141 55 -3 20 -7 22 -22 13 -14
-9 -22 -9 -34 1 -18 15 -21 47 -6 56 18 11 10 25 -15 25 -15 0 -25 -6 -25 -14
0 -26 -23 -30 -41 -8 -9 12 -29 22 -43 22 l-26 0 20 -20z m111 -66 c9 -11 10
-20 2 -32 -24 -39 -82 -15 -68 28 8 24 47 27 66 4z"/>
<path d="M14553 271 c9 -25 8 -33 -8 -50 -22 -25 -57 -27 -76 -5 -12 14 -14
13 -21 -6 -16 -43 4 -50 143 -50 138 0 151 5 141 55 -3 20 -7 22 -22 13 -35
-22 -68 30 -38 60 9 9 7 12 -11 12 -13 0 -30 -8 -36 -17 -13 -17 -14 -17 -32
0 -11 9 -27 17 -35 17 -14 0 -15 -5 -5 -29z m98 -47 c9 -11 10 -20 2 -32 -24
-39 -82 -15 -68 28 8 24 47 27 66 4z"/>
<path d="M14913 271 c9 -25 8 -33 -8 -50 -22 -25 -57 -27 -75 -6 -18 22 -34 3
-26 -29 l6 -26 140 0 c130 0 139 1 145 20 3 11 4 29 0 40 -5 16 -9 18 -25 8
-35 -22 -68 30 -38 60 9 9 7 12 -11 12 -13 0 -30 -8 -36 -17 -13 -17 -14 -17
-32 0 -11 9 -27 17 -35 17 -14 0 -15 -5 -5 -29z m98 -47 c9 -11 10 -20 2 -32
-24 -39 -82 -15 -68 28 8 24 47 27 66 4z"/>
<path d="M15283 271 c9 -25 8 -33 -8 -50 -22 -25 -57 -27 -76 -5 -12 14 -14
13 -21 -6 -16 -43 4 -50 143 -50 138 0 151 5 141 55 -3 20 -7 22 -22 13 -35
-22 -68 30 -38 60 9 9 7 12 -11 12 -13 0 -30 -8 -36 -17 -13 -17 -14 -17 -32
0 -11 9 -27 17 -35 17 -14 0 -15 -5 -5 -29z m98 -47 c9 -11 10 -20 2 -32 -24
-39 -82 -15 -68 28 8 24 47 27 66 4z"/>
<path d="M15650 280 c25 -25 26 -52 2 -73 -23 -21 -56 -22 -73 -1 -12 14 -14
13 -21 -6 -16 -43 4 -50 143 -50 138 0 151 5 141 55 -3 20 -7 22 -22 13 -14
-9 -22 -9 -34 1 -18 15 -21 47 -6 56 18 11 10 25 -15 25 -15 0 -25 -6 -25 -14
0 -26 -23 -30 -41 -8 -9 12 -29 22 -43 22 l-26 0 20 -20z m111 -66 c9 -11 10
-20 2 -32 -24 -39 -82 -15 -68 28 8 24 47 27 66 4z"/>
<path d="M16010 280 c25 -25 26 -52 2 -73 -23 -21 -56 -22 -72 -2 -18 22 -34
3 -26 -29 l6 -26 140 0 c130 0 139 1 145 20 3 11 4 29 0 40 -5 16 -9 18 -25 8
-14 -9 -22 -9 -34 1 -18 15 -21 47 -6 56 18 11 10 25 -15 25 -15 0 -25 -6 -25
-14 0 -26 -23 -30 -41 -8 -9 12 -29 22 -43 22 l-26 0 20 -20z m111 -66 c9 -11
10 -20 2 -32 -24 -39 -82 -15 -68 28 8 24 47 27 66 4z"/>
<path d="M16380 280 c25 -25 26 -52 2 -73 -23 -21 -56 -22 -73 -1 -12 14 -14
13 -21 -6 -16 -43 4 -50 143 -50 138 0 151 5 141 55 -3 20 -7 22 -22 13 -14
-9 -22 -9 -34 1 -18 15 -21 47 -6 56 18 11 10 25 -15 25 -15 0 -25 -6 -25 -14
0 -26 -23 -30 -41 -8 -9 12 -29 22 -43 22 l-26 0 20 -20z m111 -66 c9 -11 10
-20 2 -32 -24 -39 -82 -15 -68 28 8 24 47 27 66 4z"/>
<path d="M16763 271 c9 -25 8 -33 -8 -50 -22 -25 -57 -27 -76 -5 -12 14 -14
13 -21 -6 -16 -43 4 -50 143 -50 138 0 151 5 141 55 -3 20 -7 22 -22 13 -35
-22 -68 30 -38 60 9 9 7 12 -11 12 -13 0 -30 -8 -36 -17 -13 -17 -14 -17 -32
0 -11 9 -27 17 -35 17 -14 0 -15 -5 -5 -29z m98 -47 c9 -11 10 -20 2 -32 -24
-39 -82 -15 -68 28 8 24 47 27 66 4z"/>
<path d="M17123 271 c9 -25 8 -33 -8 -50 -22 -25 -57 -27 -75 -6 -18 22 -34 3
-26 -29 l6 -26 140 0 c130 0 139 1 145 20 3 11 4 29 0 40 -5 16 -9 18 -25 8
-35 -22 -68 30 -38 60 9 9 7 12 -11 12 -13 0 -30 -8 -36 -17 -13 -17 -14 -17
-32 0 -11 9 -27 17 -35 17 -14 0 -15 -5 -5 -29z m98 -47 c9 -11 10 -20 2 -32
-24 -39 -82 -15 -68 28 8 24 47 27 66 4z"/>
<path d="M17493 271 c9 -25 8 -33 -8 -50 -22 -25 -57 -27 -76 -5 -12 14 -14
13 -21 -6 -16 -43 4 -50 143 -50 138 0 151 5 141 55 -3 20 -7 22 -22 13 -35
-22 -68 30 -38 60 9 9 7 12 -11 12 -13 0 -30 -8 -36 -17 -13 -17 -14 -17 -32
0 -11 9 -27 17 -35 17 -14 0 -15 -5 -5 -29z m98 -47 c9 -11 10 -20 2 -32 -24
-39 -82 -15 -68 28 8 24 47 27 66 4z"/>
<path d="M17884 275 c30 -28 33 -55 8 -78 -23 -21 -56 -22 -73 -1 -12 14 -14
13 -21 -6 -16 -43 4 -50 143 -50 138 0 151 5 141 55 -3 20 -7 22 -22 13 -34
-22 -68 30 -39 59 15 15 3 33 -22 33 -12 0 -19 -7 -19 -19 0 -11 -5 -23 -10
-26 -15 -9 -42 15 -36 32 4 9 -5 13 -36 13 l-41 0 27 -25z m117 -71 c9 -11 10
-20 2 -32 -24 -39 -82 -15 -68 28 8 24 47 27 66 4z"/>
<path d="M18244 275 c30 -28 33 -55 8 -78 -23 -21 -56 -22 -72 -2 -18 22 -34
3 -26 -29 l6 -26 140 0 c130 0 139 1 145 20 3 11 4 29 0 40 -5 16 -9 18 -25 8
-34 -22 -68 30 -39 59 15 15 3 33 -22 33 -12 0 -19 -7 -19 -19 0 -11 -5 -23
-10 -26 -15 -9 -42 15 -36 32 4 9 -5 13 -36 13 l-41 0 27 -25z m117 -71 c9
-11 10 -20 2 -32 -24 -39 -82 -15 -68 28 8 24 47 27 66 4z"/>
<path d="M18614 275 c30 -28 33 -55 8 -78 -23 -21 -56 -22 -73 -1 -12 14 -14
13 -21 -6 -16 -43 4 -50 143 -50 138 0 151 5 141 55 -3 20 -7 22 -22 13 -34
-22 -68 30 -39 59 15 15 3 33 -22 33 -12 0 -19 -7 -19 -19 0 -11 -5 -23 -10
-26 -15 -9 -42 15 -36 32 4 9 -5 13 -36 13 l-41 0 27 -25z m117 -71 c9 -11 10
-20 2 -32 -24 -39 -82 -15 -68 28 8 24 47 27 66 4z"/>
<path d="M18990 280 c25 -25 26 -52 2 -73 -23 -21 -56 -22 -73 -1 -12 14 -14
13 -21 -6 -16 -43 4 -50 143 -50 138 0 151 5 141 55 -3 20 -7 22 -22 13 -14
-9 -22 -9 -34 1 -18 15 -21 47 -6 56 18 11 10 25 -15 25 -15 0 -25 -6 -25 -14
0 -26 -23 -30 -41 -8 -9 12 -29 22 -43 22 l-26 0 20 -20z m111 -66 c9 -11 10
-20 2 -32 -24 -39 -82 -15 -68 28 8 24 47 27 66 4z"/>
<path d="M19350 280 c25 -25 26 -52 2 -73 -23 -21 -56 -22 -72 -2 -18 22 -34
3 -26 -29 l6 -26 140 0 c130 0 139 1 145 20 3 11 4 29 0 40 -5 16 -9 18 -25 8
-14 -9 -22 -9 -34 1 -18 15 -21 47 -6 56 18 11 10 25 -15 25 -15 0 -25 -6 -25
-14 0 -26 -23 -30 -41 -8 -9 12 -29 22 -43 22 l-26 0 20 -20z m111 -66 c9 -11
10 -20 2 -32 -24 -39 -82 -15 -68 28 8 24 47 27 66 4z"/>
<path d="M19720 280 c25 -25 26 -52 2 -73 -23 -21 -56 -22 -73 -1 -12 14 -14
13 -21 -6 -16 -43 4 -50 143 -50 138 0 151 5 141 55 -3 20 -7 22 -22 13 -14
-9 -22 -9 -34 1 -18 15 -21 47 -6 56 18 11 10 25 -15 25 -15 0 -25 -6 -25 -14
0 -26 -23 -30 -41 -8 -9 12 -29 22 -43 22 l-26 0 20 -20z m111 -66 c9 -11 10
-20 2 -32 -24 -39 -82 -15 -68 28 8 24 47 27 66 4z"/>
<path d="M20094 275 c30 -28 33 -55 8 -78 -23 -21 -56 -22 -73 -1 -12 14 -14
13 -21 -6 -16 -43 4 -50 143 -50 138 0 151 5 141 55 -3 20 -7 22 -22 13 -34
-22 -68 30 -39 59 15 15 3 33 -22 33 -12 0 -19 -7 -19 -19 0 -11 -5 -23 -10
-26 -15 -9 -42 15 -36 32 4 9 -5 13 -36 13 l-41 0 27 -25z m117 -71 c9 -11 10
-20 2 -32 -24 -39 -82 -15 -68 28 8 24 47 27 66 4z"/>
<path d="M20454 275 c30 -28 33 -55 8 -78 -23 -21 -56 -22 -72 -2 -18 22 -34
3 -26 -29 l6 -26 140 0 c130 0 139 1 145 20 3 11 4 29 0 40 -5 16 -9 18 -25 8
-34 -22 -68 30 -39 59 15 15 3 33 -22 33 -12 0 -19 -7 -19 -19 0 -11 -5 -23
-10 -26 -15 -9 -42 15 -36 32 4 9 -5 13 -36 13 l-41 0 27 -25z m117 -71 c9
-11 10 -20 2 -32 -24 -39 -82 -15 -68 28 8 24 47 27 66 4z"/>
<path d="M20824 275 c30 -28 33 -55 8 -78 -23 -21 -56 -22 -73 -1 -12 14 -14
13 -21 -6 -16 -43 4 -50 143 -50 138 0 151 5 141 55 -3 20 -7 22 -22 13 -34
-22 -68 30 -39 59 15 15 3 33 -22 33 -12 0 -19 -7 -19 -19 0 -11 -5 -23 -10
-26 -15 -9 -42 15 -36 32 4 9 -5 13 -36 13 l-41 0 27 -25z m117 -71 c9 -11 10
-20 2 -32 -24 -39 -82 -15 -68 28 8 24 47 27 66 4z"/>
<path d="M21200 280 c25 -25 26 -52 2 -73 -23 -21 -56 -22 -73 -1 -12 14 -14
13 -21 -6 -16 -43 4 -50 143 -50 138 0 151 5 141 55 -3 20 -7 22 -22 13 -14
-9 -22 -9 -34 1 -18 15 -21 47 -6 56 18 11 10 25 -15 25 -15 0 -25 -6 -25 -14
0 -26 -23 -30 -41 -8 -9 12 -29 22 -43 22 l-26 0 20 -20z m111 -66 c9 -11 10
-20 2 -32 -24 -39 -82 -15 -68 28 8 24 47 27 66 4z"/>
<path d="M21560 280 c25 -25 26 -52 2 -73 -23 -21 -56 -22 -72 -2 -18 22 -34
3 -26 -29 l6 -26 140 0 c130 0 139 1 145 20 3 11 4 29 0 40 -5 16 -9 18 -25 8
-14 -9 -22 -9 -34 1 -18 15 -21 47 -6 56 18 11 10 25 -15 25 -15 0 -25 -6 -25
-14 0 -26 -23 -30 -41 -8 -9 12 -29 22 -43 22 l-26 0 20 -20z m111 -66 c9 -11
10 -20 2 -32 -24 -39 -82 -15 -68 28 8 24 47 27 66 4z"/>
<path d="M21930 280 c25 -25 26 -52 2 -73 -23 -21 -56 -22 -73 -1 -12 14 -14
13 -21 -6 -16 -43 4 -50 143 -50 138 0 151 5 141 55 -3 20 -7 22 -22 13 -14
-9 -22 -9 -34 1 -18 15 -21 47 -6 56 18 11 10 25 -15 25 -15 0 -25 -6 -25 -14
0 -26 -23 -30 -41 -8 -9 12 -29 22 -43 22 l-26 0 20 -20z m111 -66 c9 -11 10
-20 2 -32 -24 -39 -82 -15 -68 28 8 24 47 27 66 4z"/>
<path d="M22320 280 c25 -25 26 -52 2 -73 -23 -21 -56 -22 -73 -1 -12 14 -14
13 -21 -6 -16 -43 4 -50 143 -50 138 0 151 5 141 55 -3 20 -7 22 -22 13 -14
-9 -22 -9 -34 1 -18 15 -21 47 -6 56 18 11 10 25 -15 25 -15 0 -25 -6 -25 -14
0 -26 -23 -30 -41 -8 -9 12 -29 22 -43 22 l-26 0 20 -20z m111 -66 c9 -11 10
-20 2 -32 -24 -39 -82 -15 -68 28 8 24 47 27 66 4z"/>
<path d="M22680 280 c25 -25 26 -52 2 -73 -23 -21 -56 -22 -72 -2 -18 22 -34
3 -26 -29 l6 -26 140 0 c130 0 139 1 145 20 3 11 4 29 0 40 -5 16 -9 18 -25 8
-14 -9 -22 -9 -34 1 -18 15 -21 47 -6 56 18 11 10 25 -15 25 -15 0 -25 -6 -25
-14 0 -26 -23 -30 -41 -8 -9 12 -29 22 -43 22 l-26 0 20 -20z m111 -66 c9 -11
10 -20 2 -32 -24 -39 -82 -15 -68 28 8 24 47 27 66 4z"/>
<path d="M23050 280 c25 -25 26 -52 2 -73 -23 -21 -56 -22 -73 -1 -12 14 -14
13 -21 -6 -16 -43 4 -50 143 -50 138 0 151 5 141 55 -3 20 -7 22 -22 13 -14
-9 -22 -9 -34 1 -18 15 -21 47 -6 56 18 11 10 25 -15 25 -15 0 -25 -6 -25 -14
0 -26 -23 -30 -41 -8 -9 12 -29 22 -43 22 l-26 0 20 -20z m111 -66 c9 -11 10
-20 2 -32 -24 -39 -82 -15 -68 28 8 24 47 27 66 4z"/>
<path d="M23433 271 c9 -25 8 -33 -8 -50 -22 -25 -57 -27 -76 -5 -12 14 -14
13 -21 -6 -16 -43 4 -50 143 -50 138 0 151 5 141 55 -3 20 -7 22 -22 13 -35
-22 -68 30 -38 60 9 9 7 12 -11 12 -13 0 -30 -8 -36 -17 -13 -17 -14 -17 -32
0 -11 9 -27 17 -35 17 -14 0 -15 -5 -5 -29z m98 -47 c9 -11 10 -20 2 -32 -24
-39 -82 -15 -68 28 8 24 47 27 66 4z"/>
<path d="M23793 271 c9 -25 8 -33 -8 -50 -22 -25 -57 -27 -75 -6 -18 22 -34 3
-26 -29 l6 -26 140 0 c130 0 139 1 145 20 3 11 4 29 0 40 -5 16 -9 18 -25 8
-35 -22 -68 30 -38 60 9 9 7 12 -11 12 -13 0 -30 -8 -36 -17 -13 -17 -14 -17
-32 0 -11 9 -27 17 -35 17 -14 0 -15 -5 -5 -29z m98 -47 c9 -11 10 -20 2 -32
-24 -39 -82 -15 -68 28 8 24 47 27 66 4z"/>
<path d="M24163 271 c9 -25 8 -33 -8 -50 -22 -25 -57 -27 -76 -5 -12 14 -14
13 -21 -6 -16 -43 4 -50 143 -50 138 0 151 5 141 55 -3 20 -7 22 -22 13 -35
-22 -68 30 -38 60 9 9 7 12 -11 12 -13 0 -30 -8 -36 -17 -13 -17 -14 -17 -32
0 -11 9 -27 17 -35 17 -14 0 -15 -5 -5 -29z m98 -47 c9 -11 10 -20 2 -32 -24
-39 -82 -15 -68 28 8 24 47 27 66 4z"/>
<path d="M24530 280 c25 -25 26 -52 2 -73 -23 -21 -56 -22 -73 -1 -12 14 -14
13 -21 -6 -16 -43 4 -50 143 -50 138 0 151 5 141 55 -3 20 -7 22 -22 13 -14
-9 -22 -9 -34 1 -18 15 -21 47 -6 56 18 11 10 25 -15 25 -15 0 -25 -6 -25 -14
0 -26 -23 -30 -41 -8 -9 12 -29 22 -43 22 l-26 0 20 -20z m111 -66 c9 -11 10
-20 2 -32 -24 -39 -82 -15 -68 28 8 24 47 27 66 4z"/>
<path d="M24890 280 c25 -25 26 -52 2 -73 -23 -21 -56 -22 -72 -2 -18 22 -34
3 -26 -29 l6 -26 140 0 c130 0 139 1 145 20 3 11 4 29 0 40 -5 16 -9 18 -25 8
-14 -9 -22 -9 -34 1 -18 15 -21 47 -6 56 18 11 10 25 -15 25 -15 0 -25 -6 -25
-14 0 -26 -23 -30 -41 -8 -9 12 -29 22 -43 22 l-26 0 20 -20z m111 -66 c9 -11
10 -20 2 -32 -24 -39 -82 -15 -68 28 8 24 47 27 66 4z"/>
<path d="M25260 280 c25 -25 26 -52 2 -73 -23 -21 -56 -22 -73 -1 -12 14 -14
13 -21 -6 -16 -43 4 -50 143 -50 138 0 151 5 141 55 -3 20 -7 22 -22 13 -14
-9 -22 -9 -34 1 -18 15 -21 47 -6 56 18 11 10 25 -15 25 -15 0 -25 -6 -25 -14
0 -26 -23 -30 -41 -8 -9 12 -29 22 -43 22 l-26 0 20 -20z m111 -66 c9 -11 10
-20 2 -32 -24 -39 -82 -15 -68 28 8 24 47 27 66 4z"/>
<path d="M25643 271 c9 -25 8 -33 -8 -50 -22 -25 -57 -27 -76 -5 -12 14 -14
13 -21 -6 -16 -43 4 -50 143 -50 138 0 151 5 141 55 -3 20 -7 22 -22 13 -35
-22 -68 30 -38 60 9 9 7 12 -11 12 -13 0 -30 -8 -36 -17 -13 -17 -14 -17 -32
0 -11 9 -27 17 -35 17 -14 0 -15 -5 -5 -29z m98 -47 c9 -11 10 -20 2 -32 -24
-39 -82 -15 -68 28 8 24 47 27 66 4z"/>
<path d="M26003 271 c9 -25 8 -33 -8 -50 -22 -25 -57 -27 -75 -6 -18 22 -34 3
-26 -29 l6 -26 140 0 c130 0 139 1 145 20 3 11 4 29 0 40 -5 16 -9 18 -25 8
-35 -22 -68 30 -38 60 9 9 7 12 -11 12 -13 0 -30 -8 -36 -17 -13 -17 -14 -17
-32 0 -11 9 -27 17 -35 17 -14 0 -15 -5 -5 -29z m98 -47 c9 -11 10 -20 2 -32
-24 -39 -82 -15 -68 28 8 24 47 27 66 4z"/>
<path d="M26373 271 c9 -25 8 -33 -8 -50 -22 -25 -57 -27 -76 -5 -12 14 -14
13 -21 -6 -16 -43 4 -50 143 -50 138 0 151 5 141 55 -3 20 -7 22 -22 13 -35
-22 -68 30 -38 60 9 9 7 12 -11 12 -13 0 -30 -8 -36 -17 -13 -17 -14 -17 -32
0 -11 9 -27 17 -35 17 -14 0 -15 -5 -5 -29z m98 -47 c9 -11 10 -20 2 -32 -24
-39 -82 -15 -68 28 8 24 47 27 66 4z"/>
<path d="M26734 275 c30 -28 33 -55 8 -78 -23 -21 -56 -22 -73 -1 -12 14 -14
13 -21 -6 -16 -43 4 -50 143 -50 138 0 151 5 141 55 -3 20 -7 22 -22 13 -34
-22 -68 30 -39 59 15 15 3 33 -22 33 -12 0 -19 -7 -19 -19 0 -11 -5 -23 -10
-26 -15 -9 -42 15 -36 32 4 9 -5 13 -36 13 l-41 0 27 -25z m117 -71 c9 -11 10
-20 2 -32 -24 -39 -82 -15 -68 28 8 24 47 27 66 4z"/>
<path d="M27094 275 c30 -28 33 -55 8 -78 -23 -21 -56 -22 -72 -2 -18 22 -34
3 -26 -29 l6 -26 140 0 c130 0 139 1 145 20 3 11 4 29 0 40 -5 16 -9 18 -25 8
-34 -22 -68 30 -39 59 15 15 3 33 -22 33 -12 0 -19 -7 -19 -19 0 -11 -5 -23
-10 -26 -15 -9 -42 15 -36 32 4 9 -5 13 -36 13 l-41 0 27 -25z m117 -71 c9
-11 10 -20 2 -32 -24 -39 -82 -15 -68 28 8 24 47 27 66 4z"/>
<path d="M27464 275 c30 -28 33 -55 8 -78 -23 -21 -56 -22 -73 -1 -12 14 -14
13 -21 -6 -16 -43 4 -50 143 -50 138 0 151 5 141 55 -3 20 -7 22 -22 13 -34
-22 -68 30 -39 59 15 15 3 33 -22 33 -12 0 -19 -7 -19 -19 0 -11 -5 -23 -10
-26 -15 -9 -42 15 -36 32 4 9 -5 13 -36 13 l-41 0 27 -25z m117 -71 c9 -11 10
-20 2 -32 -24 -39 -82 -15 -68 28 8 24 47 27 66 4z"/>
<path d="M27840 280 c25 -25 26 -52 2 -73 -23 -21 -56 -22 -73 -1 -12 14 -14
13 -21 -6 -16 -43 4 -50 143 -50 138 0 151 5 141 55 -3 20 -7 22 -22 13 -14
-9 -22 -9 -34 1 -18 15 -21 47 -6 56 18 11 10 25 -15 25 -15 0 -25 -6 -25 -14
0 -26 -23 -30 -41 -8 -9 12 -29 22 -43 22 l-26 0 20 -20z m111 -66 c9 -11 10
-20 2 -32 -24 -39 -82 -15 -68 28 8 24 47 27 66 4z"/>
<path d="M28200 280 c25 -25 26 -52 2 -73 -23 -21 -56 -22 -72 -2 -18 22 -34
3 -26 -29 l6 -26 140 0 c130 0 139 1 145 20 3 11 4 29 0 40 -5 16 -9 18 -25 8
-14 -9 -22 -9 -34 1 -18 15 -21 47 -6 56 18 11 10 25 -15 25 -15 0 -25 -6 -25
-14 0 -26 -23 -30 -41 -8 -9 12 -29 22 -43 22 l-26 0 20 -20z m111 -66 c9 -11
10 -20 2 -32 -24 -39 -82 -15 -68 28 8 24 47 27 66 4z"/>
<path d="M28570 280 c25 -25 26 -52 2 -73 -23 -21 -56 -22 -73 -1 -12 14 -14
13 -21 -6 -16 -43 4 -50 143 -50 138 0 151 5 141 55 -3 20 -7 22 -22 13 -14
-9 -22 -9 -34 1 -18 15 -21 47 -6 56 18 11 10 25 -15 25 -15 0 -25 -6 -25 -14
0 -26 -23 -30 -41 -8 -9 12 -29 22 -43 22 l-26 0 20 -20z m111 -66 c9 -11 10
-20 2 -32 -24 -39 -82 -15 -68 28 8 24 47 27 66 4z"/>
<path d="M28944 275 c30 -28 33 -55 8 -78 -23 -21 -56 -22 -73 -1 -12 14 -14
13 -21 -6 -16 -43 4 -50 143 -50 138 0 151 5 141 55 -3 20 -7 22 -22 13 -34
-22 -68 30 -39 59 15 15 3 33 -22 33 -12 0 -19 -7 -19 -19 0 -11 -5 -23 -10
-26 -15 -9 -42 15 -36 32 4 9 -5 13 -36 13 l-41 0 27 -25z m117 -71 c9 -11 10
-20 2 -32 -24 -39 -82 -15 -68 28 8 24 47 27 66 4z"/>
<path d="M29304 275 c30 -28 33 -55 8 -78 -23 -21 -56 -22 -72 -2 -18 22 -34
3 -26 -29 l6 -26 140 0 c130 0 139 1 145 20 3 11 4 29 0 40 -5 16 -9 18 -25 8
-34 -22 -68 30 -39 59 15 15 3 33 -22 33 -12 0 -19 -7 -19 -19 0 -11 -5 -23
-10 -26 -15 -9 -42 15 -36 32 4 9 -5 13 -36 13 l-41 0 27 -25z m117 -71 c9
-11 10 -20 2 -32 -24 -39 -82 -15 -68 28 8 24 47 27 66 4z"/>
<path d="M29674 275 c30 -28 33 -55 8 -78 -23 -21 -56 -22 -73 -1 -12 14 -14
13 -21 -6 -16 -43 4 -50 143 -50 138 0 151 5 141 55 -3 20 -7 22 -22 13 -34
-22 -68 30 -39 59 15 15 3 33 -22 33 -12 0 -19 -7 -19 -19 0 -11 -5 -23 -10
-26 -15 -9 -42 15 -36 32 4 9 -5 13 -36 13 l-41 0 27 -25z m117 -71 c9 -11 10
-20 2 -32 -24 -39 -82 -15 -68 28 8 24 47 27 66 4z"/>
<path d="M29957 198 c-7 -24 8 -48 29 -48 20 0 17 34 -5 54 -17 16 -19 16 -24
-6z"/>
</g>
</svg>
